<svg width="340.000000pt" height="301.000000pt" viewBox="0 0 340.000000 301.000000" xmlns="http://www.w3.org/2000/svg">
  <g transform="translate(0.000000,301.000000) scale(0.100000,-0.100000)" fill="#eae3f5" stroke="none">
    <path d="M0 1505 l0 -1505 1700 0 1700 0 0 1505 0 1505 -1700 0 -1700 0 0
-1505z m1478 803 c5 -7 12 -24 14 -38 l3 -25 17 -3 17 -3 3 28 3 28 30 0 30 0
3 -32 3 -32 88 -80 c49 -45 95 -81 102 -81 7 0 28 14 46 32 l33 32 0 22 c0 22
24 54 40 54 14 0 40 -30 40 -46 l0 -15 18 3 17 3 3 28 3 27 19 10 19 10 15
-16 c30 -29 14 -59 -34 -66 l-25 -3 -3 -17 -3 -17 28 -3 28 -3 3 -28 3 -28 17
3 17 3 3 25 c2 14 9 31 14 38 15 17 45 15 57 -5 l9 -17 -9 -18 c-5 -10 -20
-18 -32 -18 l-22 0 -112 -112 c-62 -62 -113 -119 -113 -127 0 -9 17 -32 37
-53 20 -21 33 -38 27 -38 -5 0 -30 20 -54 45 l-44 45 97 98 c53 53 97 103 97
110 l0 12 -27 0 -28 0 -87 -87 -88 -88 0 -40 0 -39 58 -61 57 -60 -62 60 -63
59 0 41 0 40 90 90 90 90 0 27 0 28 -12 0 c-7 0 -54 -42 -105 -92 l-93 -93 0
-89 0 -90 53 -55 52 -55 -45 38 c-25 21 -53 47 -62 58 l-18 20 0 87 0 86 95
95 c52 52 95 100 95 107 l0 13 -22 0 -23 0 -92 -92 -93 -93 -1 -85 -2 -85 -86
-80 -86 -80 78 80 c71 75 94 115 65 115 -7 0 -42 -28 -78 -62 l-65 -63 78 80
c71 75 94 115 65 115 -7 0 -42 -28 -78 -62 l-65 -63 55 59 c30 33 65 68 78 79
l22 18 0 25 0 24 20 12 c11 7 20 18 20 24 0 15 -176 188 -196 192 l-14 3 0
-28 0 -29 55 -54 55 -54 0 -69 0 -68 -10 6 -10 6 0 67 0 66 -47 48 -47 48 -28
0 -28 0 0 -13 c0 -7 18 -31 40 -52 l40 -39 -2 -101 -2 -100 -3 95 -4 95 -67
68 -66 67 -21 0 c-43 0 -62 50 -26 69 l18 10 16 -12 c9 -7 17 -23 19 -37 l3
-25 16 -3 17 -3 6 25 6 26 26 6 25 6 -3 17 -3 16 -25 3 c-14 2 -30 10 -37 19
l-12 16 10 18 c11 22 42 25 57 7z m649 -854 c-3 -3 -12 -4 -19 -1 l-13 5 19 1
c11 1 17 -2 13 -5z m44 -14 c25 -14 49 -62 49 -97 -1 -15 -6 -38 -13 -51 l-13
-23 4 64 4 63 -32 27 c-33 28 -33 34 1 17z m-723 -75 l-3 -75 -24 -22 -23 -23
17 27 17 27 -4 71 -3 70 14 0 13 0 -4 -75z m76 7 c4 -37 12 -78 19 -92 l12
-25 45 -6 45 -6 -38 -1 c-21 -1 -47 3 -58 8 -28 16 -47 59 -55 128 l-7 62 15
0 15 0 7 -68z m206 13 c0 -64 -14 -99 -48 -121 l-26 -17 22 28 22 28 0 68 0
69 15 0 15 0 0 -55z m60 -47 c0 -56 -2 -99 -4 -97 -2 2 -6 48 -10 102 l-6 97
10 0 10 0 0 -102z m172 2 l3 -100 -20 1 -20 1 12 5 12 4 -6 95 -6 94 11 0 11
0 3 -100z m84 78 l-16 -22 0 -47 0 -47 18 -22 18 -23 40 -7 39 -8 -28 -1 c-42
-2 -82 24 -101 64 l-18 36 11 31 c10 29 38 68 48 68 2 0 -3 -10 -11 -22z
m-758 -148 l12 -20 48 -2 47 -1 -43 -4 -44 -4 -24 16 c-13 8 -24 20 -24 25 0
17 14 11 28 -10z m99 -116 c-3 -3 -12 -4 -19 -1 l-13 5 19 1 c11 1 17 -2 13
-5z m131 -1 l-58 -4 0 -24 0 -25 43 -2 42 -1 -42 -4 -43 -4 0 -74 0 -74 58 -4
57 -3 -62 -2 -63 -2 0 54 c0 29 -3 81 -6 115 l-7 61 69 -2 69 -2 -57 -3z m149
0 c-4 -3 -10 -3 -14 0 -3 4 0 7 7 7 7 0 10 -3 7 -7z m77 1 c9 -3 16 -11 16
-16 l0 -10 -12 10 c-7 5 -22 12 -33 15 l-20 5 17 1 c9 0 23 -2 32 -5z m213
-98 c18 -55 31 -101 29 -103 -2 -3 -18 37 -36 86 l-33 91 -13 0 c-7 0 -20 -21
-29 -47 -10 -27 -22 -58 -28 -70 -21 -45 -16 -16 11 65 l27 83 19 -3 19 -3 34
-99z m95 33 l5 -71 14 -9 14 -9 -12 0 -13 0 0 -35 c0 -19 -4 -35 -10 -35 l-10
0 0 54 c0 29 -3 81 -6 115 l-7 61 10 0 10 0 5 -71z m75 65 c-3 -3 -12 -4 -19
-1 l-13 5 19 1 c11 1 17 -2 13 -5z m-497 -18 c-6 -8 -10 -25 -8 -38 l3 -23 65
-17 65 -18 17 -21 18 -21 -10 -17 c-5 -10 -17 -24 -27 -32 l-18 -14 13 17 c7
9 12 29 10 45 l-3 28 -72 23 -71 23 -6 16 -6 16 15 23 c9 13 18 24 21 24 4 0
1 -7 -6 -14z m-327 -18 c-12 -13 -24 -36 -27 -53 l-6 -30 17 -35 18 -35 45
-18 45 -18 -40 6 c-22 4 -50 13 -63 21 -29 19 -45 59 -37 96 6 27 50 88 63 88
3 0 -4 -10 -15 -22z m917 -48 c0 -28 -21 -52 -54 -64 l-18 -6 6 -28 7 -27 -17
25 c-10 14 -23 28 -28 32 l-11 8 28 0 27 0 20 20 c24 24 26 57 3 90 l-16 25
26 -24 27 -24 0 -27z m-602 -115 c-3 -3 -9 2 -12 12 l-7 18 12 -12 c7 -7 10
-15 7 -18z m209 8 c-4 -3 -7 0 -7 7 0 7 3 10 7 7 3 -4 3 -10 0 -14z m-10 -30
c-4 -3 -7 0 -7 7 0 7 3 10 7 7 3 -4 3 -10 0 -14z m-494 -90 c-7 -2 -13 -13
-13 -23 0 -10 6 -21 13 -23 l12 -5 -17 -1 -18 -1 0 30 0 30 18 -1 17 -1 -12
-5z m124 -40 c-3 -10 -5 -2 -5 17 0 19 2 27 5 18 2 -10 2 -26 0 -35z m-100 10
c-4 -3 -7 0 -7 7 0 7 3 10 7 7 3 -4 3 -10 0 -14z m380 0 c-4 -3 -7 0 -7 7 0 7
3 10 7 7 3 -4 3 -10 0 -14z m-127 -2 c0 -6 -4 -13 -10 -16 l-10 -6 0 15 c0 9
5 16 10 16 6 0 10 -4 10 -9z" />
    <path d="M1437 2303 c-4 -3 -7 -15 -7 -25 l0 -18 20 0 20 0 0 25 0 25 -13 0
c-8 0 -17 -3 -20 -7z" />
    <path d="M1544 2275 c-4 -9 -2 -21 4 -27 6 -6 18 -8 27 -4 l16 6 -3 17 c-2 10
-11 19 -21 21 l-17 3 -6 -16z" />
    <path d="M1540 2216 c0 -8 43 -55 97 -105 l96 -92 16 3 c9 2 17 12 19 23 l3
20 -90 83 -90 82 -25 0 -26 0 0 -14z" />
    <path d="M1337 2203 c-4 -3 -7 -12 -7 -20 l0 -13 25 0 25 0 0 20 0 20 -18 0
c-10 0 -22 -3 -25 -7z" />
    <path d="M2000 2190 l0 -20 20 0 20 0 0 20 0 20 -20 0 -20 0 0 -20z" />
    <path d="M1450 2170 l0 -20 20 0 20 0 0 20 0 20 -20 0 -20 0 0 -20z" />
    <path d="M1890 2170 l0 -20 20 0 20 0 0 20 0 20 -20 0 -20 0 0 -20z" />
    <path d="M2100 2096 l0 -26 21 0 20 0 -3 22 -3 23 -17 3 -18 3 0 -25z" />
    <path d="M1984 2085 c-4 -9 -2 -21 4 -27 6 -6 18 -8 27 -4 l16 6 -3 17 c-2 10
-11 19 -21 21 l-17 3 -6 -16z" />
  </g>
  <g transform="translate(0.000000,301.000000) scale(0.100000,-0.100000)" fill="#753bbd" stroke="none">
    <path d="M1409 2309 l-11 -22 11 -23 11 -24 24 0 c34 0 41 -16 11 -24 l-25 -6
-6 -25 c-8 -30 -24 -23 -24 11 l0 24 -24 11 -23 11 -22 -11 -21 -12 0 -27 c0
-33 16 -52 45 -52 l21 0 67 -68 67 -68 0 -92 0 -92 15 0 15 0 0 107 0 107 -42
43 -42 43 20 0 20 0 47 -48 47 -48 0 -67 0 -68 16 -6 16 -6 -58 -58 -58 -59
12 -12 12 -12 70 69 c39 38 70 65 70 60 0 -5 -37 -47 -82 -92 l-82 -83 12 -12
12 -12 70 69 c39 38 70 65 70 60 0 -5 -37 -47 -82 -92 l-82 -83 12 -12 12 -12
89 85 88 84 2 85 1 85 93 93 c51 50 99 92 107 92 8 0 -29 -44 -83 -98 l-97
-97 0 -97 0 -96 18 -20 c9 -11 39 -39 65 -62 l48 -43 11 11 12 12 -57 58 -57
58 0 79 0 80 95 95 95 95 0 -20 0 -20 -90 -90 -90 -90 0 -50 0 -51 58 -57 c32
-31 63 -57 70 -57 25 0 10 27 -43 80 l-55 54 0 30 0 31 87 87 88 88 20 0 20 0
-98 -98 c-53 -53 -97 -104 -97 -113 0 -8 22 -36 49 -63 l49 -48 11 6 c19 12
12 29 -26 68 l-37 38 114 115 115 115 22 0 22 0 12 21 11 22 -11 23 -11 24
-28 0 c-34 0 -52 -16 -52 -46 0 -13 -4 -25 -9 -29 l-10 -5 -3 27 -3 28 -30 6
-30 6 15 6 c8 3 24 7 34 9 10 2 23 10 29 19 l10 16 -7 26 -6 26 -20 6 c-10 3
-28 1 -40 -5 l-20 -11 0 -24 c0 -13 -4 -27 -10 -30 -5 -3 -10 1 -10 9 0 20
-28 46 -50 46 -25 0 -50 -27 -50 -54 l0 -22 -35 -34 -34 -33 -90 82 -90 82 -3
32 -3 32 -40 0 -40 0 -3 -28 -3 -27 -10 5 c-5 4 -9 16 -9 29 0 30 -18 46 -52
46 l-27 0 -12 -21z m47 -36 c-10 -10 -19 5 -10 18 l8 13 4 -13 c2 -7 1 -15 -2
-18z m118 -14 c-3 -5 -10 -7 -15 -3 -5 3 -7 10 -3 15 3 5 10 7 15 3 5 -3 7
-10 3 -15z m101 -124 l90 -84 -12 -12 -11 -11 -98 96 -99 95 20 0 20 0 90 -84z
m-305 55 c0 -5 -7 -10 -16 -10 l-15 0 6 10 c3 6 10 10 16 10 5 0 9 -4 9 -10z
m660 0 c0 -5 -4 -10 -10 -10 -5 0 -10 5 -10 10 0 6 5 10 10 10 6 0 10 -4 10
-10z m-550 -20 c0 -5 -4 -10 -10 -10 -5 0 -10 5 -10 10 0 6 5 10 10 10 6 0 10
-4 10 -10z m228 -172 c2 -4 -6 -12 -17 -18 l-21 -11 0 -23 c0 -13 -9 -31 -20
-41 l-20 -18 0 74 0 75 -55 54 -55 54 0 20 0 20 93 -90 c50 -49 93 -92 95 -96z
m212 172 c0 -5 -4 -10 -10 -10 -5 0 -10 5 -10 10 0 6 5 10 10 10 6 0 10 -4 10
-10z m210 -81 c0 -5 -4 -9 -10 -9 -5 0 -10 7 -10 16 l0 15 10 -6 c6 -3 10 -10
10 -16z m-116 -20 c-3 -5 -10 -7 -15 -3 -5 3 -7 10 -3 15 3 5 10 7 15 3 5 -3
7 -10 3 -15z" />
    <path d="M2063 1455 c-36 -15 -60 -47 -69 -92 l-6 -31 17 -36 18 -37 28 -14
c15 -8 42 -15 59 -15 44 0 95 26 109 56 16 35 14 90 -5 125 l-15 31 -34 14
c-42 17 -61 17 -102 -1z m96 -41 l31 -26 0 -44 0 -44 -20 -20 -20 -20 -30 0
-31 0 -24 25 -25 24 0 41 0 41 25 24 c13 14 33 25 44 25 11 0 33 -12 50 -26z" />
    <path d="M1418 1380 l5 -69 -17 -26 -16 -25 -40 0 -40 0 -12 20 -13 20 -22 0
c-13 0 -23 -5 -23 -10 0 -6 11 -22 25 -35 l24 -25 55 0 55 0 28 24 28 24 4 86
3 86 -25 0 -24 0 5 -70z" />
    <path d="M1484 1379 c7 -77 25 -123 55 -139 29 -15 99 -12 137 6 19 9 41 28
48 43 13 24 20 86 17 139 l-1 22 -20 0 -20 0 0 -62 0 -61 -26 -34 -25 -33 -38
0 -39 0 -12 15 c-7 9 -18 51 -24 95 l-10 80 -25 0 -24 0 7 -71z" />
    <path d="M1763 1383 c4 -38 7 -87 7 -110 l0 -43 70 0 70 0 0 10 0 10 -55 0
-55 0 0 100 0 100 -21 0 -22 0 6 -67z" />
    <path d="M1910 1441 c0 -5 4 -11 9 -13 4 -1 11 -40 14 -85 l5 -83 -9 0 c-5 0
-9 -7 -9 -15 l0 -15 28 0 28 0 -4 100 -4 100 11 0 c7 0 9 5 6 10 -8 13 -75 13
-75 1z" />
    <path d="M1321 1152 c-19 -9 -44 -30 -55 -45 l-21 -28 0 -51 0 -50 27 -23 28
-24 44 -6 c49 -8 66 -2 66 22 l0 15 -16 -6 c-8 -3 -31 1 -50 9 l-35 14 -13 31
c-7 18 -11 43 -8 56 6 31 57 74 88 74 l24 0 0 15 0 15 -22 0 c-13 0 -38 -8
-57 -18z" />
    <path d="M1434 1093 c3 -42 6 -98 6 -125 l0 -48 70 0 70 0 0 15 0 15 -55 0
-55 0 0 65 0 65 40 0 40 0 0 15 0 15 -40 0 -40 0 0 15 0 15 55 0 55 0 0 15 0
15 -76 0 -77 0 7 -77z" />
    <path d="M1615 1145 c-26 -25 -31 -50 -17 -73 5 -7 40 -23 78 -35 l69 -22 3
-21 3 -20 -21 -19 c-24 -22 -26 -35 -4 -35 20 0 74 54 74 75 0 9 -10 26 -22
38 l-23 23 -58 13 -58 13 -6 15 c-3 8 1 22 10 30 l16 16 32 -1 c17 0 37 -6 42
-11 17 -17 37 -13 37 8 0 24 -19 31 -81 31 l-50 0 -24 -25z" />
    <path d="M1837 1058 c-20 -63 -37 -119 -37 -126 0 -7 6 -12 13 -12 7 0 19 19
27 43 l15 42 46 3 46 3 17 -46 18 -45 14 0 14 0 -6 28 c-4 15 -22 70 -39 122
l-32 95 -29 3 -29 3 -38 -113z m86 17 l16 -45 -35 0 c-19 0 -34 2 -34 5 0 8
32 85 35 85 2 0 10 -20 18 -45z" />
    <path d="M2024 1093 c3 -42 6 -98 6 -125 l0 -48 20 0 20 0 0 35 0 35 23 0 24
0 19 -35 c10 -19 24 -35 31 -35 16 0 16 10 3 45 l-10 26 18 6 c9 3 25 13 35
21 l17 15 0 37 0 37 -22 21 c-33 30 -71 42 -135 42 l-56 0 7 -77z m99 47 c21
0 67 -43 67 -63 0 -25 -25 -48 -62 -56 -20 -5 -41 -5 -48 -1 l-12 7 -5 63 -6
63 24 -6 c13 -4 32 -7 42 -7z" />
    <path d="M1595 990 c-12 -19 6 -48 36 -60 16 -7 32 -10 36 -6 3 3 -6 17 -20
30 -15 14 -27 30 -27 36 0 13 -17 13 -25 0z" />
    <path d="M1290 820 l0 -41 26 3 c15 2 32 11 38 21 l11 17 -11 18 c-6 9 -23 18
-38 20 l-26 3 0 -41z m37 -7 c-4 -3 -7 0 -7 7 0 7 3 10 7 7 3 -4 3 -10 0 -14z" />
    <path d="M1430 820 l0 -40 15 0 15 0 0 30 c0 17 5 30 10 30 6 0 10 5 10 10 0
6 -11 10 -25 10 l-25 0 0 -40z" />
    <path d="M1550 853 c0 -21 26 -73 37 -73 7 0 20 16 28 36 8 20 15 38 15 40 0
11 -25 2 -36 -13 l-13 -18 -1 18 c0 9 -7 17 -15 17 -8 0 -15 -3 -15 -7z" />
    <path d="M1720 845 l-12 -15 6 -25 6 -25 25 0 24 0 11 20 11 20 -11 20 c-13
24 -42 26 -60 5z m32 -37 l-12 -12 0 24 0 24 12 -12 12 -12 -12 -12z" />
    <path d="M1870 820 l0 -40 10 0 c6 0 10 7 10 15 0 8 3 15 8 15 4 0 13 4 20 8
l13 9 -7 16 -6 17 -24 0 -24 0 0 -40z" />
    <path d="M1993 844 l-6 -17 16 -12 c10 -7 17 -17 17 -24 0 -17 20 -13 27 5 l6
17 -16 12 c-10 7 -17 17 -17 24 0 17 -20 13 -27 -5z" />
  </g>
  <g transform="translate(0.000000,301.000000) scale(0.100000,-0.100000)" fill="#e3d9f3" stroke="none">
    <path d="M1415 2320 c-3 -5 -2 -10 4 -10 5 0 13 5 16 10 3 6 2 10 -4 10 -5 0
-13 -4 -16 -10z" />
    <path d="M1440 2300 c-8 -5 -12 -12 -9 -15 4 -3 12 1 19 10 14 17 11 19 -10 5z" />
    <path d="M1525 2299 c-11 -17 1 -21 15 -4 l12 15 -10 0 c-6 0 -14 -5 -17 -11z" />
    <path d="M1590 2295 c7 -9 15 -13 17 -11 7 7 -7 26 -19 26 l-10 0 12 -15z" />
    <path d="M1545 2279 c-11 -17 1 -21 15 -4 l12 15 -10 0 c-6 0 -14 -5 -17 -11z" />
    <path d="M1469 2237 c7 -10 10 -17 5 -17 -5 0 2 -7 14 -16 l22 -15 1 -27 1
-27 6 22 7 22 92 -90 92 -91 -22 -18 c-12 -10 -20 -21 -17 -24 3 -3 19 5 34
18 l29 23 -127 124 c-70 68 -133 126 -139 128 l-12 4 14 -16z" />
    <path d="M1317 2223 c-4 -3 -7 -11 -7 -17 l0 -10 12 12 c6 6 9 14 7 17 -3 3
-9 2 -12 -2z" />
    <path d="M1340 2199 c0 -5 5 -7 10 -4 6 3 10 8 10 11 0 2 -4 4 -10 4 -5 0 -10
-5 -10 -11z" />
    <path d="M1430 2199 c0 -5 5 -7 10 -4 6 3 10 8 10 11 0 2 -4 4 -10 4 -5 0 -10
-5 -10 -11z" />
    <path d="M1870 2199 c0 -5 5 -7 10 -4 6 3 10 8 10 11 0 2 -4 4 -10 4 -5 0 -10
-5 -10 -11z" />
    <path d="M1935 2200 c3 -5 8 -10 11 -10 2 0 4 5 4 10 0 6 -5 10 -11 10 -5 0
-7 -4 -4 -10z" />
    <path d="M2024 2190 c0 -11 4 -20 8 -20 4 0 8 9 8 20 0 11 -4 20 -8 20 -4 0
-8 -9 -8 -20z" />
    <path d="M1310 2173 c0 -13 29 -38 35 -31 3 3 -4 13 -15 23 -11 10 -20 13 -20
8z" />
    <path d="M1390 2173 c0 -4 34 -42 75 -83 41 -41 75 -70 75 -64 0 5 -18 28 -40
49 l-41 40 23 7 23 6 -27 1 -27 1 -15 22 c-9 12 -16 19 -16 14 0 -5 -7 -3 -15
4 -8 7 -15 8 -15 3z" />
    <path d="M1975 2171 c-3 -6 -9 -10 -13 -8 -4 2 -17 -7 -29 -20 -12 -13 -19
-23 -15 -23 3 0 -38 -45 -93 -100 -54 -54 -97 -102 -94 -104 3 -3 63 53 134
124 71 71 126 132 123 135 -3 4 -9 1 -13 -4z" />
    <path d="M2045 2160 c-10 -11 -13 -20 -8 -20 13 0 38 29 31 35 -3 3 -13 -4
-23 -15z" />
    <path d="M1860 2159 c0 -9 -18 -33 -40 -52 -21 -20 -36 -38 -31 -41 4 -3 26
14 49 37 l41 42 -9 15 -10 15 0 -16z" />
    <path d="M1435 2080 c38 -38 71 -67 74 -64 6 6 -120 134 -133 134 -6 0 21 -31
59 -70z" />
    <path d="M1877 2032 c-64 -64 -117 -122 -117 -127 0 -5 45 35 100 90 55 55
100 96 100 92 0 -4 8 1 18 11 10 9 17 19 15 21 -1 2 2 10 8 18 6 7 7 13 3 13
-5 0 -62 -53 -127 -118z" />
    <path d="M2147 2116 c10 -13 19 -23 21 -21 7 6 -19 45 -29 45 -5 0 -2 -11 8
-24z" />
    <path d="M1795 2040 c-49 -49 -87 -92 -84 -94 3 -3 47 37 99 89 52 52 90 95
85 95 -6 0 -51 -40 -100 -90z" />
    <path d="M2077 2123 c-4 -3 -7 -11 -7 -17 l0 -10 12 12 c6 6 9 14 7 17 -3 3
-9 2 -12 -2z" />
    <path d="M2030 2105 c7 -9 15 -13 17 -11 7 7 -7 26 -19 26 l-10 0 12 -15z" />
    <path d="M2125 2100 c3 -5 8 -10 11 -10 2 0 4 5 4 10 0 6 -5 10 -11 10 -5 0
-7 -4 -4 -10z" />
    <path d="M2010 2085 c7 -9 15 -13 17 -11 7 7 -7 26 -19 26 l-10 0 12 -15z" />
    <path d="M2062 2068 c-7 -7 -12 -9 -12 -5 0 4 -8 -1 -18 -10 -11 -10 -18 -21
-16 -24 2 -3 -40 -48 -92 -100 -51 -51 -94 -101 -94 -109 0 -17 89 -110 105
-110 5 0 -15 25 -45 55 l-55 55 125 125 c68 68 122 127 119 129 -3 3 -11 0
-17 -6z" />
    <path d="M1752 2039 c-14 -22 0 -26 17 -5 l12 14 -9 5 c-4 3 -13 -3 -20 -14z" />
    <path d="M1975 1940 l-119 -120 44 -45 c24 -24 46 -42 49 -40 2 3 -13 23 -34
45 l-39 40 119 120 c66 66 115 120 110 120 -6 0 -64 -54 -130 -120z" />
    <path d="M1740 1723 c0 -12 38 -48 45 -41 3 2 -6 15 -20 28 -14 13 -25 19 -25
13z" />
    <path d="M2080 1440 l-15 -10 12 0 c6 0 15 5 18 10 8 12 4 12 -15 0z" />
    <path d="M2151 1420 c19 -15 36 -26 38 -24 8 7 -30 42 -51 47 l-21 6 34 -29z" />
    <path d="M2180 1435 c7 -8 17 -15 22 -15 l10 0 -12 15 c-7 8 -17 15 -22 15
l-10 0 12 -15z" />
    <path d="M1740 1400 c0 -7 3 -10 7 -7 3 4 3 10 0 14 -4 3 -7 0 -7 -7z" />
    <path d="M1726 1313 l-7 -18 12 12 c7 7 10 15 7 18 -3 3 -9 -2 -12 -12z" />
    <path d="M1930 1310 c0 -7 3 -10 7 -7 3 4 3 10 0 14 -4 3 -7 0 -7 -7z" />
    <path d="M2187 1303 c-4 -3 -7 -11 -7 -17 l0 -10 12 12 c6 6 9 14 7 17 -3 3
-9 2 -12 -2z" />
    <path d="M1437 1283 c-4 -3 -7 -11 -7 -17 l0 -10 12 12 c6 6 9 14 7 17 -3 3
-9 2 -12 -2z" />
    <path d="M1250 1273 c0 -13 29 -38 35 -31 3 3 -4 13 -15 23 -11 10 -20 13 -20
8z" />
    <path d="M2020 1272 c0 -12 19 -26 26 -19 2 2 -2 10 -11 17 l-15 12 0 -10z" />
    <path d="M2195 1270 c-3 -5 -1 -10 4 -10 6 0 11 5 11 10 0 6 -2 10 -4 10 -3 0
-8 -4 -11 -10z" />
    <path d="M2145 1260 c-3 -5 -2 -10 4 -10 5 0 13 5 16 10 3 6 2 10 -4 10 -5 0
-13 -4 -16 -10z" />
    <path d="M1525 1250 c3 -5 11 -10 16 -10 6 0 7 5 4 10 -3 6 -11 10 -16 10 -6
0 -7 -4 -4 -10z" />
    <path d="M1920 1249 c0 -5 5 -7 10 -4 6 3 10 8 10 11 0 2 -4 4 -10 4 -5 0 -10
-5 -10 -11z" />
    <path d="M1565 1160 c3 -5 8 -10 11 -10 2 0 4 5 4 10 0 6 -5 10 -11 10 -5 0
-7 -4 -4 -10z" />
    <path d="M1754 1140 c0 -11 4 -20 8 -20 4 0 8 9 8 20 0 11 -4 20 -8 20 -4 0
-8 -9 -8 -20z" />
    <path d="M1328 1134 c-16 -8 -28 -19 -28 -25 0 -5 14 0 30 13 17 12 30 23 30
25 0 5 -3 4 -32 -13z" />
    <path d="M2093 1143 c4 -3 10 -3 14 0 3 4 0 7 -7 7 -7 0 -10 -3 -7 -7z" />
    <path d="M1893 1123 c-3 -10 -8 -22 -10 -28 -3 -5 2 -2 10 7 8 10 17 15 20 11
4 -3 7 -1 7 5 0 20 -20 24 -27 5z" />
    <path d="M2210 1111 c0 -5 5 -13 10 -16 6 -3 10 -2 10 4 0 5 -4 13 -10 16 -5
3 -10 2 -10 -4z" />
    <path d="M1600 1070 c0 -5 5 -10 11 -10 5 0 7 5 4 10 -3 6 -8 10 -11 10 -2 0
-4 -4 -4 -10z" />
    <path d="M1280 1060 c0 -7 3 -10 7 -7 3 4 3 10 0 14 -4 3 -7 0 -7 -7z" />
    <path d="M2185 1059 c-4 -6 -5 -12 -2 -15 2 -3 7 2 10 11 7 17 1 20 -8 4z" />
    <path d="M1730 1056 c0 -2 7 -7 16 -10 l15 -6 -6 10 c-6 10 -25 14 -25 6z" />
    <path d="M1677 1039 c7 -7 15 -10 18 -7 3 3 -2 9 -12 12 l-18 7 12 -12z" />
    <path d="M2145 1020 c-3 -5 -2 -10 4 -10 5 0 13 5 16 10 3 6 2 10 -4 10 -5 0
-13 -4 -16 -10z" />
    <path d="M1280 1011 c0 -5 5 -13 10 -16 6 -3 10 -2 10 4 0 5 -4 13 -10 16 -5
3 -10 2 -10 -4z" />
    <path d="M1846 1004 l-6 -17 15 13 c17 14 19 20 6 20 -5 0 -12 -7 -15 -16z" />
    <path d="M1786 983 l-7 -18 12 12 c7 7 10 15 7 18 -3 3 -9 -2 -12 -12z" />
    <path d="M1250 982 c0 -13 48 -52 64 -52 6 0 2 7 -9 15 -11 8 -28 22 -37 31
l-18 17 0 -11z" />
    <path d="M1610 981 c0 -5 5 -13 10 -16 6 -3 10 -2 10 4 0 5 -4 13 -10 16 -5 3
-10 2 -10 -4z" />
    <path d="M1986 977 c3 -10 9 -15 12 -12 3 3 0 11 -7 18 l-12 12 7 -18z" />
    <path d="M2120 981 c0 -5 5 -13 10 -16 6 -3 10 -2 10 4 0 5 -4 13 -10 16 -5 3
-10 2 -10 -4z" />
    <path d="M2156 977 c3 -10 9 -15 12 -12 3 3 0 11 -7 18 l-12 12 7 -18z" />
    <path d="M1325 960 c3 -5 16 -10 28 -9 l22 0 -20 9 c-28 12 -37 12 -30 0z" />
    <path d="M1730 955 l-12 -15 10 0 c12 0 26 19 19 26 -2 2 -10 -2 -17 -11z" />
    <path d="M1396 949 c3 -6 0 -16 -7 -21 l-14 -10 15 5 c18 4 27 37 10 37 l-11
0 7 -11z" />
    <path d="M1600 950 c0 -5 5 -10 11 -10 5 0 7 5 4 10 -3 6 -8 10 -11 10 -2 0
-4 -4 -4 -10z" />
    <path d="M1815 930 c-3 -5 -1 -10 4 -10 6 0 11 5 11 10 0 6 -2 10 -4 10 -3 0
-8 -4 -11 -10z" />
    <path d="M2150 930 c0 -15 21 -23 32 -12 l9 9 -20 6 c-12 3 -21 1 -21 -3z" />
    <path d="M1613 845 c0 -8 4 -12 9 -9 4 3 8 9 8 15 0 5 -4 9 -8 9 -5 0 -9 -7
-9 -15z" />
    <path d="M1907 849 c6 -6 9 -19 6 -28 l-6 -16 12 11 12 11 -7 16 c-3 9 -11 17
-17 17 l-11 0 11 -11z" />
    <path d="M1550 841 c0 -6 4 -13 10 -16 l10 -6 -6 15 c-7 18 -14 21 -14 7z" />
    <path d="M1310 804 l0 -13 15 5 c8 4 15 9 15 13 0 4 -7 8 -15 8 -8 0 -15 -6
-15 -13z" />
    <path d="M1720 790 c0 -5 5 -10 11 -10 5 0 7 5 4 10 -3 6 -8 10 -11 10 -2 0
-4 -4 -4 -10z" />
  </g>
  <g transform="translate(0.000000,301.000000) scale(0.100000,-0.100000)" fill="#8a5ac7" stroke="none">
    <path d="M1448 2323 c7 -3 16 -2 19 1 4 3 -2 6 -13 5 l-19 -1 13 -5z" />
    <path d="M1530 2295 c-7 -9 -11 -17 -9 -20 3 -2 10 5 17 15 14 24 10 26 -8 5z" />
    <path d="M1580 2306 c0 -2 8 -10 18 -17 l17 -14 -14 18 c-13 16 -21 21 -21 13z" />
    <path d="M1430 2290 c0 -7 3 -10 7 -7 3 4 3 10 0 14 -4 3 -7 0 -7 -7z" />
    <path d="M1573 2265 c0 -8 4 -12 9 -9 5 3 6 10 3 15 -9 13 -12 11 -12 -6z" />
    <path d="M1473 2239 c9 -6 15 -14 12 -18 -5 -9 34 -48 42 -43 2 2 47 -38 100
-89 l95 -92 -29 -24 -28 -25 33 22 c18 12 32 25 30 29 -7 14 -255 251 -264
251 -5 0 -1 -5 9 -11z" />
    <path d="M1434 2198 l-19 -23 23 19 c21 18 27 26 19 26 -2 0 -12 -10 -23 -22z" />
    <path d="M1350 2203 c8 -3 19 -11 23 -17 l9 -11 -5 15 c-2 8 -12 16 -23 17
l-19 3 15 -7z" />
    <path d="M2005 2199 c-4 -6 -4 -13 -1 -16 3 -4 6 -1 6 5 0 6 8 13 18 15 l17 5
-17 1 c-9 0 -20 -4 -23 -10z" />
    <path d="M1450 2179 c0 -5 5 -7 10 -4 6 3 10 8 10 11 0 2 -4 4 -10 4 -5 0 -10
-5 -10 -11z" />
    <path d="M1915 2180 c3 -5 8 -10 11 -10 2 0 4 5 4 10 0 6 -5 10 -11 10 -5 0
-7 -4 -4 -10z" />
    <path d="M1390 2175 c0 -6 35 -44 77 -85 43 -41 56 -51 28 -22 -27 28 -45 52
-41 52 5 0 1 9 -9 20 -10 11 -21 17 -26 15 -4 -3 -12 3 -18 12 -6 10 -11 13
-11 8z" />
    <path d="M1976 2165 c-3 -9 -10 -14 -15 -11 -5 3 -14 -1 -21 -9 -7 -8 -9 -15
-4 -15 5 0 -41 -51 -101 -112 l-110 -113 135 132 c74 73 131 135 128 138 -3 3
-8 -1 -12 -10z m-16 -19 c0 -3 -5 -8 -12 -12 l-11 -7 7 11 c7 12 16 16 16 8z" />
    <path d="M1371 2148 c3 -2 36 -32 74 -68 l70 -65 -65 68 c-35 37 -69 67 -74
67 -5 0 -7 -1 -5 -2z" />
    <path d="M1830 2105 c-24 -25 -42 -45 -39 -45 3 0 25 20 49 45 24 25 42 45 39
45 -3 0 -25 -20 -49 -45z" />
    <path d="M1877 2032 c-64 -64 -117 -120 -117 -123 0 -4 43 38 97 92 53 54 99
96 103 94 4 -3 13 2 20 10 7 8 9 15 4 15 -5 0 0 7 10 15 11 8 16 15 10 15 -5
0 -62 -53 -127 -118z" />
    <path d="M1795 2038 l-90 -93 95 90 c52 50 96 91 99 93 2 1 0 2 -5 2 -5 0 -50
-42 -99 -92z" />
    <path d="M2020 2116 c0 -2 8 -10 18 -17 l17 -14 -14 18 c-13 16 -21 21 -21 13z" />
    <path d="M2130 2098 c0 -9 -6 -19 -12 -21 l-13 -5 13 -1 c14 -1 28 26 18 36
-3 4 -6 -1 -6 -9z" />
    <path d="M2155 2079 c-4 -6 -5 -12 -2 -15 2 -3 7 2 10 11 7 17 1 20 -8 4z" />
    <path d="M2066 2063 l-7 -17 -8 13 -8 13 -6 -16 c-4 -9 -5 -18 -4 -21 1 -3
-45 -52 -103 -110 l-105 -105 60 -58 60 -57 -55 58 -55 57 125 125 c68 68 121
127 118 130 -3 3 -9 -2 -12 -12z m-16 -17 c0 -3 -5 -8 -12 -12 l-11 -7 7 11
c7 12 16 16 16 8z" />
    <path d="M1975 1940 l-120 -120 50 -48 50 -47 -45 48 -45 48 121 119 c66 66
118 120 115 120 -4 0 -60 -54 -126 -120z" />
    <path d="M1756 2035 c-11 -8 -15 -15 -9 -15 6 0 16 7 23 15 16 19 11 19 -14 0z" />
    <path d="M1612 1891 l-14 -8 16 -6 16 -6 0 14 c0 17 -1 17 -18 6z" />
    <path d="M1665 1880 c-3 -5 -1 -10 4 -10 6 0 11 5 11 10 0 6 -2 10 -4 10 -3 0
-8 -4 -11 -10z" />
    <path d="M1730 1737 c0 -2 15 -16 33 -33 l32 -29 -29 33 c-28 30 -36 37 -36
29z" />
    <path d="M1900 1670 l-15 -10 18 0 c9 0 17 5 17 10 0 12 -1 12 -20 0z" />
    <path d="M2170 1446 c0 -2 8 -10 18 -17 l17 -14 -14 18 c-13 16 -21 21 -21 13z" />
    <path d="M2165 1420 c10 -11 20 -20 23 -20 3 0 -3 9 -13 20 -10 11 -20 20 -23
20 -3 0 3 -9 13 -20z" />
    <path d="M1770 1320 c0 -7 3 -10 7 -7 3 4 3 10 0 14 -4 3 -7 0 -7 -7z" />
    <path d="M1996 1317 c3 -10 9 -15 12 -12 3 3 0 11 -7 18 l-12 12 7 -18z" />
    <path d="M2220 1320 c0 -7 3 -10 7 -7 3 4 3 10 0 14 -4 3 -7 0 -7 -7z" />
    <path d="M2040 1301 c0 -6 4 -13 10 -16 l10 -6 -6 15 c-7 18 -14 21 -14 7z" />
    <path d="M1260 1296 c0 -2 7 -6 15 -10 8 -3 15 -1 15 4 0 6 -7 10 -15 10 -8 0
-15 -2 -15 -4z" />
    <path d="M1715 1289 c-4 -6 -5 -12 -2 -15 2 -3 7 2 10 11 7 17 1 20 -8 4z" />
    <path d="M2025 1270 c10 -11 20 -20 23 -20 3 0 -3 9 -13 20 -10 11 -20 20 -23
20 -3 0 3 -9 13 -20z" />
    <path d="M1935 1260 c-3 -5 -1 -10 4 -10 6 0 11 5 11 10 0 6 -2 10 -4 10 -3 0
-8 -4 -11 -10z" />
    <path d="M2087 1259 c7 -7 15 -10 18 -7 3 3 -2 9 -12 12 l-18 7 12 -12z" />
    <path d="M1770 1240 c0 -5 5 -10 11 -10 5 0 7 5 4 10 -3 6 -8 10 -11 10 -2 0
-4 -4 -4 -10z" />
    <path d="M1723 1163 c4 -3 10 -3 14 0 3 4 0 7 -7 7 -7 0 -10 -3 -7 -7z" />
    <path d="M2167 1149 c7 -7 15 -10 18 -7 3 3 -2 9 -12 12 l-18 7 12 -12z" />
    <path d="M1303 1134 c4 -4 2 -13 -4 -21 -15 -17 -1 -17 16 1 l14 14 -16 7
c-10 3 -14 3 -10 -1z" />
    <path d="M1895 1129 c-4 -6 -5 -12 -2 -15 2 -3 7 2 10 11 7 17 1 20 -8 4z" />
    <path d="M1667 1069 c7 -7 15 -10 18 -7 3 3 -2 9 -12 12 l-18 7 12 -12z" />
    <path d="M1927 1060 c3 -11 9 -22 13 -25 5 -3 6 4 3 15 -3 11 -9 22 -13 25 -5
3 -6 -4 -3 -15z" />
    <path d="M2190 1070 c0 -7 3 -10 7 -7 3 4 3 10 0 14 -4 3 -7 0 -7 -7z" />
    <path d="M1865 1049 c-4 -6 -5 -12 -2 -15 2 -3 7 2 10 11 7 17 1 20 -8 4z" />
    <path d="M1962 1055 c0 -5 6 -26 13 -45 7 -19 14 -28 14 -20 0 8 -6 29 -14 45
-7 17 -13 26 -13 20z" />
    <path d="M2220 1050 c0 -7 3 -10 7 -7 3 4 3 10 0 14 -4 3 -7 0 -7 -7z" />
    <path d="M1663 1043 c4 -3 10 -3 14 0 3 4 0 7 -7 7 -7 0 -10 -3 -7 -7z" />
    <path d="M1853 1013 c4 -3 10 -3 14 0 3 4 0 7 -7 7 -7 0 -10 -3 -7 -7z" />
    <path d="M2060 990 c0 -7 3 -10 7 -7 3 4 3 10 0 14 -4 3 -7 0 -7 -7z" />
    <path d="M1806 963 l-7 -18 12 12 c7 7 10 15 7 18 -3 3 -9 -2 -12 -12z" />
    <path d="M1590 966 c0 -2 8 -10 18 -17 l17 -14 -14 18 c-13 16 -21 21 -21 13z" />
    <path d="M1733 956 l-12 -14 12 -5 13 -5 1 19 c1 10 1 19 0 19 -1 -1 -7 -7
-14 -14z" />
    <path d="M1825 949 c-4 -6 -5 -12 -2 -15 2 -3 7 2 10 11 7 17 1 20 -8 4z" />
    <path d="M1653 934 c0 -8 6 -14 14 -14 7 0 13 4 13 9 0 5 -6 11 -13 14 l-14 5
0 -14z" />
    <path d="M2166 935 l-5 -15 14 0 14 0 -5 15 c-4 8 -7 15 -9 15 -2 0 -5 -7 -9
-15z" />
    <path d="M1313 933 c4 -3 10 -3 14 0 3 4 0 7 -7 7 -7 0 -10 -3 -7 -7z" />
    <path d="M1721 847 l-11 -14 13 0 c8 0 14 6 14 14 0 7 -1 13 -2 13 -2 0 -8 -6
-14 -13z" />
    <path d="M1903 853 c4 -6 3 -14 -3 -18 -11 -7 -4 -25 10 -25 16 0 18 29 2 42
l-16 13 7 -12z" />
    <path d="M1567 837 l-5 -14 13 0 13 0 -5 14 c-3 7 -6 13 -8 13 -2 0 -5 -6 -8
-13z" />
    <path d="M2012 821 l-14 -8 14 -6 15 -5 0 14 c0 8 -1 14 -1 14 -1 0 -7 -4 -14
-9z" />
    <path d="M1722 793 c6 -7 17 -13 24 -13 8 0 14 6 14 13 l0 13 -25 0 -24 0 11
-13z" />
  </g>
  <g transform="translate(0.000000,301.000000) scale(0.100000,-0.100000)" fill="#bfa4e0" stroke="none">
    <path d="M1470 2326 c0 -2 8 -10 18 -17 l17 -14 -14 18 c-13 16 -21 21 -21 13z" />
    <path d="M1515 2250 c-4 -6 1 -17 10 -26 l16 -17 8 9 8 9 -18 17 -18 17 -6 -9z" />
    <path d="M1600 2206 c30 -33 180 -170 180 -164 0 3 -46 47 -102 98 -57 52 -92
81 -78 66z" />
    <path d="M1890 2175 c0 -8 2 -15 4 -15 2 0 6 7 10 15 3 8 1 15 -4 15 -6 0 -10
-7 -10 -15z" />
    <path d="M1916 2165 c-3 -8 -1 -15 4 -15 6 0 10 7 10 15 0 8 -2 15 -4 15 -2 0
-6 -7 -10 -15z" />
    <path d="M1951 2164 l1 -19 5 13 c3 7 2 16 -1 19 -3 4 -6 -2 -5 -13z" />
    <path d="M1337 2149 c7 -7 15 -10 18 -7 3 3 -2 9 -12 12 l-18 7 12 -12z" />
    <path d="M1565 2090 c33 -33 62 -60 64 -60 3 0 -21 27 -54 60 -33 33 -62 60
-64 60 -3 0 21 -27 54 -60z" />
    <path d="M1540 2075 c30 -30 57 -55 59 -55 3 0 -19 25 -49 55 -30 30 -57 55
-59 55 -3 0 19 -25 49 -55z" />
    <path d="M2075 2109 c-4 -6 -5 -12 -2 -15 2 -3 7 2 10 11 7 17 1 20 -8 4z" />
    <path d="M1870 1963 l-95 -98 98 95 c90 88 102 100 94 100 -1 0 -45 -44 -97
-97z" />
    <path d="M2020 2040 l-15 -10 12 0 c6 0 15 5 18 10 8 12 4 12 -15 0z" />
    <path d="M1895 1948 l-90 -93 93 90 c50 49 92 91 92 92 0 8 -12 -4 -95 -89z" />
    <path d="M1655 1910 c-10 -11 -22 -17 -26 -14 -5 3 -9 -1 -9 -8 0 -7 -26 -38
-57 -70 l-57 -58 12 -12 12 -12 70 69 c39 38 70 65 70 60 0 -5 -37 -47 -82
-92 l-82 -83 12 -12 12 -12 73 74 72 75 -72 -70 c-40 -38 -76 -66 -80 -62 -4
4 30 45 75 90 73 74 97 107 75 107 -4 0 -38 -30 -75 -67 -37 -37 -71 -64 -75
-60 -4 4 31 46 77 92 47 47 82 85 79 85 -3 0 -14 -9 -24 -20z" />
    <path d="M1590 1705 l-84 -85 12 -12 12 -12 68 69 67 70 -67 -65 c-37 -35 -71
-61 -75 -57 -4 4 31 46 77 92 47 47 82 85 80 85 -3 0 -43 -38 -90 -85z" />
    <path d="M1780 1783 c0 -6 8 -17 18 -24 l17 -14 -15 20 c-8 11 -16 22 -17 24
-2 2 -3 0 -3 -6z" />
    <path d="M1856 1740 c29 -30 54 -62 57 -70 l5 -15 1 15 c1 9 -25 40 -56 70
l-58 55 51 -55z" />
    <path d="M2055 1450 l-6 -10 15 6 c18 7 21 14 7 14 -6 0 -13 -4 -16 -10z" />
    <path d="M1480 1439 c0 -5 5 -7 10 -4 6 3 10 8 10 11 0 2 -4 4 -10 4 -5 0 -10
-5 -10 -11z" />
    <path d="M2059 1423 l-14 -18 18 14 c9 7 17 15 17 17 0 8 -8 3 -21 -13z" />
    <path d="M1761 1404 l1 -19 5 13 c3 7 2 16 -1 19 -3 4 -6 -2 -5 -13z" />
    <path d="M2206 1407 c3 -10 9 -15 12 -12 3 3 0 11 -7 18 l-12 12 7 -18z" />
    <path d="M2005 1399 c-4 -6 -5 -12 -2 -15 2 -3 7 2 10 11 7 17 1 20 -8 4z" />
    <path d="M2180 1401 c0 -6 4 -13 10 -16 l10 -6 -6 15 c-7 18 -14 21 -14 7z" />
    <path d="M1531 1344 l1 -19 5 13 c3 7 2 16 -1 19 -3 4 -6 -2 -5 -13z" />
    <path d="M1451 1314 l1 -19 5 13 c3 7 2 16 -1 19 -3 4 -6 -2 -5 -13z" />
    <path d="M1491 1314 l1 -19 5 13 c3 7 2 16 -1 19 -3 4 -6 -2 -5 -13z" />
    <path d="M1240 1290 c0 -5 7 -7 15 -4 8 4 15 8 15 10 0 2 -7 4 -15 4 -8 0 -15
-4 -15 -10z" />
    <path d="M2206 1283 l-7 -18 12 12 c7 7 10 15 7 18 -3 3 -9 -2 -12 -12z" />
    <path d="M1295 1270 c10 -11 20 -20 23 -20 3 0 -3 9 -13 20 -10 11 -20 20 -23
20 -3 0 3 -9 13 -20z" />
    <path d="M2050 1286 c0 -2 8 -10 18 -17 l17 -14 -14 18 c-13 16 -21 21 -21 13z" />
    <path d="M1650 1265 c-7 -8 -9 -15 -4 -15 5 0 2 -5 -6 -11 l-15 -11 13 4 c8 2
13 7 12 12 -1 5 4 12 11 17 8 4 11 11 8 14 -4 3 -12 -1 -19 -10z" />
    <path d="M1694 1264 l-19 -15 23 11 c12 6 22 13 22 15 0 8 -5 6 -26 -11z" />
    <path d="M1419 1253 l-14 -18 18 14 c16 13 21 21 13 21 -2 0 -10 -8 -17 -17z" />
    <path d="M1558 1233 c7 -3 16 -2 19 1 4 3 -2 6 -13 5 l-19 -1 13 -5z" />
    <path d="M2118 1163 c7 -3 16 -2 19 1 4 3 -2 6 -13 5 l-19 -1 13 -5z" />
    <path d="M2153 1153 c4 -3 10 -3 14 0 3 4 0 7 -7 7 -7 0 -10 -3 -7 -7z" />
    <path d="M1708 1143 c7 -3 16 -2 19 1 4 3 -2 6 -13 5 l-19 -1 13 -5z" />
    <path d="M1756 1133 l-7 -18 12 12 c7 7 10 15 7 18 -3 3 -9 -2 -12 -12z" />
    <path d="M2124 1140 c15 -5 36 -15 45 -22 9 -7 6 -3 -7 10 -13 12 -33 22 -45
21 l-22 -1 29 -8z" />
    <path d="M2195 1130 c10 -11 20 -20 23 -20 3 0 -3 9 -13 20 -10 11 -20 20 -23
20 -3 0 3 -9 13 -20z" />
    <path d="M1274 1118 l-19 -23 23 19 c21 18 27 26 19 26 -2 0 -12 -10 -23 -22z" />
    <path d="M1286 1094 l-6 -17 15 13 c17 14 19 20 6 20 -5 0 -12 -7 -15 -16z" />
    <path d="M1648 1073 c7 -3 16 -2 19 1 4 3 -2 6 -13 5 l-19 -1 13 -5z" />
    <path d="M1723 1053 c4 -3 10 -3 14 0 3 4 0 7 -7 7 -7 0 -10 -3 -7 -7z" />
    <path d="M1760 1046 c0 -2 8 -10 18 -17 l17 -14 -14 18 c-13 16 -21 21 -21 13z" />
    <path d="M1281 1024 l1 -19 5 13 c3 7 2 16 -1 19 -3 4 -6 -2 -5 -13z" />
    <path d="M1698 1033 c7 -3 16 -2 19 1 4 3 -2 6 -13 5 l-19 -1 13 -5z" />
    <path d="M2204 1018 l-19 -23 23 19 c21 18 27 26 19 26 -2 0 -12 -10 -23 -22z" />
    <path d="M1241 1014 l1 -19 5 13 c3 7 2 16 -1 19 -3 4 -6 -2 -5 -13z" />
    <path d="M1742 1008 c7 -15 15 -23 17 -17 2 6 -4 18 -13 27 l-16 17 12 -27z" />
    <path d="M1596 992 c-3 -5 1 -9 9 -9 8 0 15 4 15 9 0 4 -4 8 -9 8 -6 0 -12 -4
-15 -8z" />
    <path d="M2130 971 c0 -6 4 -13 10 -16 l10 -6 -6 15 c-7 18 -14 21 -14 7z" />
    <path d="M1990 960 c0 -7 3 -10 7 -7 3 4 3 10 0 14 -4 3 -7 0 -7 -7z" />
    <path d="M1970 951 c0 -6 4 -13 10 -16 l10 -6 -6 15 c-7 18 -14 21 -14 7z" />
    <path d="M2165 950 c3 -5 8 -10 11 -10 3 0 2 5 -1 10 -3 6 -8 10 -11 10 -3 0
-2 -4 1 -10z" />
    <path d="M1710 930 c0 -6 7 -10 15 -10 8 0 15 2 15 4 0 2 -7 6 -15 10 -8 3
-15 1 -15 -4z" />
    <path d="M1814 928 l-7 -11 11 7 c12 7 16 16 8 16 -3 0 -8 -5 -12 -12z" />
    <path d="M2055 930 c-3 -5 -1 -10 4 -10 6 0 11 5 11 10 0 6 -2 10 -4 10 -3 0
-8 -4 -11 -10z" />
    <path d="M1290 849 c0 -5 5 -7 10 -4 6 3 10 8 10 11 0 2 -4 4 -10 4 -5 0 -10
-5 -10 -11z" />
    <path d="M1465 850 c3 -5 8 -10 11 -10 2 0 4 5 4 10 0 6 -5 10 -11 10 -5 0 -7
-4 -4 -10z" />
    <path d="M1550 849 c0 -5 5 -7 10 -4 6 3 10 8 10 11 0 2 -4 4 -10 4 -5 0 -10
-5 -10 -11z" />
    <path d="M1993 844 c-3 -8 -1 -20 5 -26 l11 -11 -6 24 -5 24 16 -20 c10 -11
15 -14 11 -7 l-6 12 16 0 16 0 -6 10 c-10 16 -45 12 -52 -6z" />
    <path d="M1710 830 c0 -7 3 -10 7 -7 3 4 3 10 0 14 -4 3 -7 0 -7 -7z" />
    <path d="M1430 790 c0 -5 5 -10 11 -10 5 0 7 5 4 10 -3 6 -8 10 -11 10 -2 0
-4 -4 -4 -10z" />
    <path d="M1990 790 c0 -5 5 -10 10 -10 6 0 10 5 10 10 0 6 -4 10 -10 10 -5 0
-10 -4 -10 -10z" />
  </g>
  <g transform="translate(0.000000,301.000000) scale(0.100000,-0.100000)" fill="#b08fd9" stroke="none">
    <path d="M1425 2320 l-6 -10 15 6 c18 7 21 14 7 14 -6 0 -13 -4 -16 -10z" />
    <path d="M1458 2213 c6 -2 18 -2 25 0 6 3 1 5 -13 5 -14 0 -19 -2 -12 -5z" />
    <path d="M1898 2213 c6 -2 18 -2 25 0 6 3 1 5 -13 5 -14 0 -19 -2 -12 -5z" />
    <path d="M2013 2203 c4 -3 10 -3 14 0 3 4 0 7 -7 7 -7 0 -10 -3 -7 -7z" />
    <path d="M1422 2170 c0 -14 2 -19 5 -12 2 6 2 18 0 25 -3 6 -5 1 -5 -13z" />
    <path d="M1950 2180 c0 -7 3 -10 7 -7 3 4 3 10 0 14 -4 3 -7 0 -7 -7z" />
    <path d="M2056 2173 l-7 -18 12 12 c7 7 10 15 7 18 -3 3 -9 -2 -12 -12z" />
    <path d="M1480 2169 l0 -11 -15 6 c-8 3 -15 1 -15 -4 0 -6 9 -10 20 -10 l20 0
0 15 c0 8 -2 15 -5 15 -3 0 -5 -5 -5 -11z" />
    <path d="M1890 2160 c0 -5 5 -10 11 -10 5 0 7 5 4 10 -3 6 -8 10 -11 10 -2 0
-4 -4 -4 -10z" />
    <path d="M1353 2143 c4 -3 10 -3 14 0 3 4 0 7 -7 7 -7 0 -10 -3 -7 -7z" />
    <path d="M2008 2143 c6 -2 18 -2 25 0 6 3 1 5 -13 5 -14 0 -19 -2 -12 -5z" />
    <path d="M2120 2136 c0 -2 7 -7 16 -10 l15 -6 -6 10 c-6 10 -25 14 -25 6z" />
    <path d="M1970 2110 c0 -5 7 -7 15 -4 8 4 15 8 15 10 0 2 -7 4 -15 4 -8 0 -15
-4 -15 -10z" />
    <path d="M2070 2090 c0 -7 3 -10 7 -7 3 4 3 10 0 14 -4 3 -7 0 -7 -7z" />
    <path d="M2130 2090 c0 -7 3 -10 7 -7 3 4 3 10 0 14 -4 3 -7 0 -7 -7z" />
    <path d="M1623 1960 c0 -47 2 -66 4 -42 2 23 2 61 0 85 -2 23 -4 4 -4 -43z" />
    <path d="M1672 1940 c0 -14 2 -19 5 -12 2 6 2 18 0 25 -3 6 -5 1 -5 -13z" />
    <path d="M1671 1864 l1 -19 5 13 c3 7 2 16 -1 19 -3 4 -6 -2 -5 -13z" />
    <path d="M1666 1812 c-2 -4 -1 -14 5 -22 l9 -15 0 23 c0 23 -5 28 -14 14z" />
    <path d="M1654 1728 l-7 -11 11 7 c12 7 16 16 8 16 -3 0 -8 -5 -12 -12z" />
    <path d="M1885 1670 c3 -5 8 -10 11 -10 3 0 2 5 -1 10 -3 6 -8 10 -11 10 -3 0
-2 -4 1 -10z" />
    <path d="M1850 1616 l10 -10 10 10 10 10 -20 0 -20 0 10 -10z" />
    <path d="M1484 1435 c-3 -8 -4 -20 -2 -27 3 -7 7 -1 10 15 6 29 1 36 -8 12z" />
    <path d="M1762 1430 c0 -14 2 -19 5 -12 2 6 2 18 0 25 -3 6 -5 1 -5 -13z" />
    <path d="M1794 1350 c0 -58 1 -81 3 -52 2 28 2 76 0 105 -2 28 -3 5 -3 -53z" />
    <path d="M2143 1433 c4 -3 10 -3 14 0 3 4 0 7 -7 7 -7 0 -10 -3 -7 -7z" />
    <path d="M1962 1400 c0 -19 2 -27 5 -17 2 9 2 25 0 35 -3 9 -5 1 -5 -18z" />
    <path d="M1932 1370 c0 -19 2 -27 5 -17 2 9 2 25 0 35 -3 9 -5 1 -5 -18z" />
    <path d="M2032 1350 c0 -19 2 -27 5 -17 2 9 2 25 0 35 -3 9 -5 1 -5 -18z" />
    <path d="M2191 1364 l1 -19 5 13 c3 7 2 16 -1 19 -3 4 -6 -2 -5 -13z" />
    <path d="M1690 1335 c0 -8 5 -15 10 -15 6 0 10 7 10 15 0 8 -4 15 -10 15 -5 0
-10 -7 -10 -15z" />
    <path d="M1731 1334 l1 -19 5 13 c3 7 2 16 -1 19 -3 4 -6 -2 -5 -13z" />
    <path d="M1450 1330 c0 -7 3 -10 7 -7 3 4 3 10 0 14 -4 3 -7 0 -7 -7z" />
    <path d="M1530 1330 c0 -7 3 -10 7 -7 3 4 3 10 0 14 -4 3 -7 0 -7 -7z" />
    <path d="M2191 1314 l1 -19 5 13 c3 7 2 16 -1 19 -3 4 -6 -2 -5 -13z" />
    <path d="M1541 1294 l1 -19 5 13 c3 7 2 16 -1 19 -3 4 -6 -2 -5 -13z" />
    <path d="M1772 1270 c0 -19 2 -27 5 -17 2 9 2 25 0 35 -3 9 -5 1 -5 -18z" />
    <path d="M2159 1263 l-14 -18 18 14 c16 13 21 21 13 21 -2 0 -10 -8 -17 -17z" />
    <path d="M2179 1253 l-14 -18 18 14 c16 13 21 21 13 21 -2 0 -10 -8 -17 -17z" />
    <path d="M1900 1240 c0 -7 3 -10 7 -7 3 4 3 10 0 14 -4 3 -7 0 -7 -7z" />
    <path d="M1623 1233 c4 -3 10 -3 14 0 3 4 0 7 -7 7 -7 0 -10 -3 -7 -7z" />
    <path d="M2093 1233 c9 -2 25 -2 35 0 9 3 1 5 -18 5 -19 0 -27 -2 -17 -5z" />
    <path d="M1368 1163 c7 -3 16 -2 19 1 4 3 -2 6 -13 5 l-19 -1 13 -5z" />
    <path d="M1430 1145 c0 -14 2 -25 4 -25 2 0 6 11 8 25 3 14 1 25 -3 25 -5 0
-9 -11 -9 -25z" />
    <path d="M2103 1163 c4 -3 10 -3 14 0 3 4 0 7 -7 7 -7 0 -10 -3 -7 -7z" />
    <path d="M2022 1130 c0 -19 2 -27 5 -17 2 9 2 25 0 35 -3 9 -5 1 -5 -18z" />
    <path d="M1358 1143 c7 -3 16 -2 19 1 4 3 -2 6 -13 5 l-19 -1 13 -5z" />
    <path d="M2155 1130 c3 -5 8 -10 11 -10 3 0 2 5 -1 10 -3 6 -8 10 -11 10 -3 0
-2 -4 1 -10z" />
    <path d="M1592 1100 c0 -14 2 -19 5 -12 2 6 2 18 0 25 -3 6 -5 1 -5 -13z" />
    <path d="M1621 1104 l1 -19 5 13 c3 7 2 16 -1 19 -3 4 -6 -2 -5 -13z" />
    <path d="M1505 1090 l-40 -7 43 -2 42 -1 0 10 c0 6 -1 9 -2 9 -2 -1 -21 -5
-43 -9z" />
    <path d="M1241 1034 l1 -19 5 13 c3 7 2 16 -1 19 -3 4 -6 -2 -5 -13z" />
    <path d="M1653 1043 c4 -3 10 -3 14 0 3 4 0 7 -7 7 -7 0 -10 -3 -7 -7z" />
    <path d="M2032 970 c0 -19 2 -27 5 -17 2 9 2 25 0 35 -3 9 -5 1 -5 -18z" />
    <path d="M1750 980 c0 -7 3 -10 7 -7 3 4 3 10 0 14 -4 3 -7 0 -7 -7z" />
    <path d="M1810 980 c0 -7 3 -10 7 -7 3 4 3 10 0 14 -4 3 -7 0 -7 -7z" />
    <path d="M2059 958 l-5 -38 9 9 c5 5 7 21 5 37 l-4 29 -5 -37z" />
    <path d="M1310 976 c0 -2 8 -10 18 -17 l17 -14 -14 18 c-13 16 -21 21 -21 13z" />
    <path d="M1441 953 l-1 -33 70 0 c39 0 70 3 70 8 0 4 -29 6 -64 4 l-65 -4 -4
29 -4 28 -2 -32z" />
    <path d="M1590 970 c0 -7 3 -10 7 -7 3 4 3 10 0 14 -4 3 -7 0 -7 -7z" />
    <path d="M2160 960 c0 -7 3 -10 7 -7 3 4 3 10 0 14 -4 3 -7 0 -7 -7z" />
    <path d="M1759 943 l-14 -18 18 14 c16 13 21 21 13 21 -2 0 -10 -8 -17 -17z" />
    <path d="M1488 943 c12 -2 32 -2 45 0 12 2 2 4 -23 4 -25 0 -35 -2 -22 -4z" />
    <path d="M1655 930 l-20 -9 33 0 c17 -1 32 4 32 9 0 12 -17 12 -45 0z" />
    <path d="M1296 851 l-5 -8 26 5 26 5 -6 -10 c-3 -5 0 -10 8 -10 l15 0 -11 14
c-13 15 -45 18 -53 4z" />
    <path d="M1430 826 c0 -19 4 -37 8 -40 12 -7 28 7 26 24 -2 32 -7 34 -14 5
l-8 -30 -1 34 -1 33 20 -5 20 -5 -6 9 c-3 5 -14 9 -25 9 l-19 0 0 -34z" />
    <path d="M1556 852 c-3 -5 1 -9 9 -9 8 0 15 4 15 9 0 4 -4 8 -9 8 -6 0 -12 -4
-15 -8z" />
    <path d="M1600 850 c0 -5 7 -7 15 -4 8 4 15 8 15 10 0 2 -7 4 -15 4 -8 0 -15
-4 -15 -10z" />
    <path d="M1748 853 c7 -3 16 -2 19 1 4 3 -2 6 -13 5 l-19 -1 13 -5z" />
    <path d="M1878 853 c6 -2 18 -2 25 0 6 3 1 5 -13 5 -14 0 -19 -2 -12 -5z" />
    <path d="M1710 820 c0 -7 3 -10 7 -7 3 4 3 10 0 14 -4 3 -7 0 -7 -7z" />
  </g>
  <g transform="translate(0.000000,301.000000) scale(0.100000,-0.100000)" fill="#9264cb" stroke="none">
    <path d="M1406 2304 l-6 -17 15 13 c17 14 19 20 6 20 -5 0 -12 -7 -15 -16z" />
    <path d="M1430 2283 c0 -19 21 -27 33 -13 l12 13 -14 -8 -13 -8 -9 14 -9 14 0
-12z" />
    <path d="M1544 2279 c-3 -6 -1 -16 5 -22 l12 -12 -7 19 -7 19 16 -6 17 -6 0 9
c0 14 -27 13 -36 -1z" />
    <path d="M1602 2265 l0 -30 5 18 c2 9 2 23 0 30 -3 6 -5 -1 -5 -18z" />
    <path d="M1514 2248 l-7 -11 11 7 c12 7 16 16 8 16 -3 0 -8 -5 -12 -12z" />
    <path d="M1326 2224 c-9 -8 -15 -25 -15 -37 l1 -22 5 20 c3 11 12 28 21 38 19
21 9 23 -12 1z" />
    <path d="M2030 2236 c0 -2 7 -9 15 -16 l15 -12 0 10 c0 5 -7 12 -15 16 -8 3
-15 4 -15 2z" />
    <path d="M1558 2223 c7 -3 16 -2 19 1 4 3 -2 6 -13 5 l-19 -1 13 -5z" />
    <path d="M1390 2210 c0 -7 3 -10 7 -7 3 4 3 10 0 14 -4 3 -7 0 -7 -7z" />
    <path d="M1879 2203 l-14 -18 18 14 c9 7 17 15 17 17 0 8 -8 3 -21 -13z" />
    <path d="M1935 2200 c10 -11 20 -20 23 -20 3 0 -3 9 -13 20 -10 11 -20 20 -23
20 -3 0 3 -9 13 -20z" />
    <path d="M1980 2210 c0 -7 3 -10 7 -7 3 4 3 10 0 14 -4 3 -7 0 -7 -7z" />
    <path d="M2060 2190 c0 -7 3 -10 7 -7 3 4 3 10 0 14 -4 3 -7 0 -7 -7z" />
    <path d="M1364 2178 l-7 -11 11 7 c12 7 16 16 8 16 -3 0 -8 -5 -12 -12z" />
    <path d="M2108 2133 c7 -3 16 -2 19 1 4 3 -2 6 -13 5 l-19 -1 13 -5z" />
    <path d="M1966 2105 c-3 -9 -6 -24 -5 -33 0 -9 5 -4 10 12 9 32 6 48 -5 21z" />
    <path d="M1990 2091 l0 -10 17 6 16 6 -6 -16 -6 -17 10 0 c17 0 5 35 -14 38
-9 2 -17 -1 -17 -7z" />
    <path d="M2105 2080 c3 -5 8 -10 11 -10 3 0 2 5 -1 10 -3 6 -8 10 -11 10 -3 0
-2 -4 1 -10z" />
    <path d="M2133 2053 c4 -3 10 -3 14 0 3 4 0 7 -7 7 -7 0 -10 -3 -7 -7z" />
    <path d="M1998 2033 c7 -3 16 -2 19 1 4 3 -2 6 -13 5 l-19 -1 13 -5z" />
    <path d="M1528 1925 c-2 -58 0 -105 5 -105 4 0 7 47 7 105 0 58 -2 105 -4 105
-3 0 -6 -47 -8 -105z" />
    <path d="M1783 1830 c0 -30 2 -43 4 -27 2 15 2 39 0 55 -2 15 -4 2 -4 -28z" />
    <path d="M1785 1680 c3 -5 8 -10 11 -10 3 0 2 5 -1 10 -3 6 -8 10 -11 10 -3 0
-2 -4 1 -10z" />
    <path d="M1910 1680 c0 -7 3 -10 7 -7 3 4 3 10 0 14 -4 3 -7 0 -7 -7z" />
    <path d="M2088 1448 c6 -6 18 -8 28 -6 l19 4 -28 6 -29 6 10 -10z" />
    <path d="M1498 1443 c6 -2 18 -2 25 0 6 3 1 5 -13 5 -14 0 -19 -2 -12 -5z" />
    <path d="M1700 1441 c0 -5 9 -7 20 -4 11 3 20 7 20 9 0 2 -9 4 -20 4 -11 0
-20 -4 -20 -9z" />
    <path d="M1932 1410 c0 -14 2 -19 5 -12 2 6 2 18 0 25 -3 6 -5 1 -5 -13z" />
    <path d="M2195 1420 c3 -5 8 -10 11 -10 2 0 4 5 4 10 0 6 -5 10 -11 10 -5 0
-7 -4 -4 -10z" />
    <path d="M2045 1409 c-4 -6 -5 -12 -2 -15 2 -3 7 2 10 11 7 17 1 20 -8 4z" />
    <path d="M1423 1340 c0 -25 2 -35 4 -22 2 12 2 32 0 45 -2 12 -4 2 -4 -23z" />
    <path d="M2220 1370 c0 -7 3 -10 7 -7 3 4 3 10 0 14 -4 3 -7 0 -7 -7z" />
    <path d="M1731 1354 l1 -19 5 13 c3 7 2 16 -1 19 -3 4 -6 -2 -5 -13z" />
    <path d="M1450 1340 c0 -7 3 -10 7 -7 3 4 3 10 0 14 -4 3 -7 0 -7 -7z" />
    <path d="M1490 1330 c0 -7 3 -10 7 -7 3 4 3 10 0 14 -4 3 -7 0 -7 -7z" />
    <path d="M1771 1304 l1 -19 5 13 c3 7 2 16 -1 19 -3 4 -6 -2 -5 -13z" />
    <path d="M1506 1275 c4 -8 11 -15 16 -15 l10 0 -12 15 c-7 8 -14 15 -16 15 -2
0 -1 -7 2 -15z" />
    <path d="M2194 1268 l-7 -11 11 7 c12 7 16 16 8 16 -3 0 -8 -5 -12 -12z" />
    <path d="M1313 1253 c4 -3 10 -3 14 0 3 4 0 7 -7 7 -7 0 -10 -3 -7 -7z" />
    <path d="M1966 1249 l7 -12 -27 5 c-14 3 -26 1 -26 -3 0 -5 14 -9 30 -9 l30 0
0 15 c0 8 -5 15 -11 15 l-10 0 7 -11z" />
    <path d="M1395 1240 l-6 -10 15 6 c18 7 21 14 7 14 -6 0 -13 -4 -16 -10z" />
    <path d="M2050 1246 c0 -2 7 -7 16 -10 l15 -6 -6 10 c-6 10 -25 14 -25 6z" />
    <path d="M1318 1233 c7 -3 16 -2 19 1 4 3 -2 6 -13 5 l-19 -1 13 -5z" />
    <path d="M1358 1233 c7 -3 16 -2 19 1 4 3 -2 6 -13 5 l-19 -1 13 -5z" />
    <path d="M1583 1233 c9 -2 25 -2 35 0 9 3 1 5 -18 5 -19 0 -27 -2 -17 -5z" />
    <path d="M1630 1160 c-24 -15 -7 -18 20 -3 l25 13 -15 0 c-8 0 -22 -4 -30 -10z" />
    <path d="M1870 1163 c0 -5 15 -8 34 -8 19 0 32 3 29 8 -2 4 -17 7 -34 7 -16 0
-29 -3 -29 -7z" />
    <path d="M2020 1160 c0 -7 3 -10 7 -7 3 4 3 10 0 14 -4 3 -7 0 -7 -7z" />
    <path d="M2088 1163 c7 -3 16 -2 19 1 4 3 -2 6 -13 5 l-19 -1 13 -5z" />
    <path d="M1518 1153 c-32 -2 -58 -7 -58 -11 0 -4 27 -5 60 -4 33 2 60 8 60 13
0 5 -1 8 -2 7 -2 -1 -29 -3 -60 -5z" />
    <path d="M1732 1134 c10 -10 20 -15 24 -12 3 4 -5 12 -18 18 l-23 12 17 -18z" />
    <path d="M1256 1093 l-7 -18 12 12 c7 7 10 15 7 18 -3 3 -9 -2 -12 -12z" />
    <path d="M2220 1090 c0 -7 3 -10 7 -7 3 4 3 10 0 14 -4 3 -7 0 -7 -7z" />
    <path d="M1590 1086 c0 -2 8 -10 18 -17 l17 -14 -14 18 c-13 16 -21 21 -21 13z" />
    <path d="M2190 1080 c0 -7 3 -10 7 -7 3 4 3 10 0 14 -4 3 -7 0 -7 -7z" />
    <path d="M2032 1015 l0 -30 5 18 c2 9 2 23 0 30 -3 6 -5 -1 -5 -18z" />
    <path d="M1442 995 l0 -30 5 18 c2 9 2 23 0 30 -3 6 -5 -1 -5 -18z" />
    <path d="M1870 1014 c38 -8 90 -9 90 -2 0 4 -24 7 -52 7 -29 -1 -46 -3 -38 -5z" />
    <path d="M2140 950 c0 -7 3 -10 7 -7 3 4 3 10 0 14 -4 3 -7 0 -7 -7z" />
    <path d="M1540 946 c0 -2 9 -6 20 -9 11 -3 20 -1 20 4 0 5 -9 9 -20 9 -11 0
-20 -2 -20 -4z" />
    <path d="M1615 940 c3 -5 8 -10 11 -10 3 0 2 5 -1 10 -3 6 -8 10 -11 10 -3 0
-2 -4 1 -10z" />
    <path d="M1664 928 c-3 -5 9 -8 25 -8 17 0 31 4 31 10 0 11 -49 9 -56 -2z" />
    <path d="M2030 930 c0 -6 7 -10 15 -10 8 0 15 2 15 4 0 2 -7 6 -15 10 -8 3
-15 1 -15 -4z" />
    <path d="M1292 818 l-2 -38 21 0 20 0 -6 10 c-4 6 -10 8 -15 5 -5 -3 -11 9
-13 27 l-4 33 -1 -37z" />
    <path d="M1757 825 c2 -7 -3 -20 -12 -29 l-16 -16 15 0 c9 0 16 7 16 16 0 8 4
13 8 10 4 -2 8 3 8 13 0 10 -6 18 -12 18 -7 0 -10 -6 -7 -12z" />
    <path d="M1880 830 c0 -5 5 -10 11 -10 5 0 7 5 4 10 -3 6 -8 10 -11 10 -2 0
-4 -4 -4 -10z" />
    <path d="M1450 820 c0 -5 7 -10 15 -10 8 0 15 5 15 10 0 6 -7 10 -15 10 -8 0
-15 -4 -15 -10z" />
    <path d="M1876 795 c-3 -8 -1 -15 4 -15 6 0 10 7 10 15 0 8 -2 15 -4 15 -2 0
-6 -7 -10 -15z" />
    <path d="M2013 803 c-18 -7 -16 -23 2 -23 8 0 15 7 15 15 0 8 -1 15 -2 14 -2
0 -9 -3 -15 -6z" />
    <path d="M1445 790 l-6 -10 20 0 c12 0 21 5 21 10 0 6 -6 10 -14 10 -8 0 -18
-4 -21 -10z" />
    <path d="M1570 790 c0 -6 7 -10 15 -10 8 0 15 2 15 4 0 2 -7 6 -15 10 -8 3
-15 1 -15 -4z" />
  </g>
  <g transform="translate(0.000000,301.000000) scale(0.100000,-0.100000)" fill="#cebae7" stroke="none">
    <path d="M1348 2233 c7 -3 16 -2 19 1 4 3 -2 6 -13 5 l-19 -1 13 -5z" />
    <path d="M2006 2231 l-6 -9 20 5 c23 6 26 13 6 13 -8 0 -17 -4 -20 -9z" />
    <path d="M1348 2173 c7 -3 16 -2 19 1 4 3 -2 6 -13 5 l-19 -1 13 -5z" />
    <path d="M2018 2173 c7 -3 16 -2 19 1 4 3 -2 6 -13 5 l-19 -1 13 -5z" />
    <path d="M1593 1935 c0 -27 2 -38 4 -22 2 15 2 37 0 50 -2 12 -4 0 -4 -28z" />
    <path d="M1734 1825 c0 -55 1 -76 3 -47 2 29 2 74 0 100 -2 26 -3 2 -3 -53z" />
    <path d="M1764 1825 c0 -49 1 -71 3 -48 2 23 2 64 0 90 -2 26 -3 8 -3 -42z" />
    <path d="M1934 1718 l-7 -11 11 7 c7 4 12 9 12 12 0 8 -9 4 -16 -8z" />
    <path d="M1865 1630 c3 -5 8 -10 11 -10 2 0 4 5 4 10 0 6 -5 10 -11 10 -5 0
-7 -4 -4 -10z" />
    <path d="M1523 1603 c4 -3 10 -3 14 0 3 4 0 7 -7 7 -7 0 -10 -3 -7 -7z" />
    <path d="M2103 1463 c9 -2 23 -2 30 0 6 3 -1 5 -18 5 l-30 0 18 -5z" />
    <path d="M1410 1435 c0 -8 2 -15 4 -15 2 0 6 7 10 15 3 8 1 15 -4 15 -6 0 -10
-7 -10 -15z" />
    <path d="M1690 1395 l0 -55 10 0 10 0 0 55 0 55 -10 0 -10 0 0 -55z" />
    <path d="M1910 1440 c0 -7 3 -10 7 -7 3 4 3 10 0 14 -4 3 -7 0 -7 -7z" />
    <path d="M1482 1385 l0 -30 5 18 c2 9 2 23 0 30 -3 6 -5 -1 -5 -18z" />
    <path d="M1762 1380 c0 -14 2 -19 5 -12 2 6 2 18 0 25 -3 6 -5 1 -5 -13z" />
    <path d="M1961 1318 c0 -38 2 -68 7 -68 4 0 6 21 4 48 -5 82 -9 89 -11 20z" />
    <path d="M1530 1360 c0 -7 3 -10 7 -7 3 4 3 10 0 14 -4 3 -7 0 -7 -7z" />
    <path d="M1992 1345 l0 -30 5 18 c2 9 2 23 0 30 -3 6 -5 -1 -5 -18z" />
    <path d="M2192 1340 c0 -14 2 -19 5 -12 2 6 2 18 0 25 -3 6 -5 1 -5 -13z" />
    <path d="M1932 1330 c0 -14 2 -19 5 -12 2 6 2 18 0 25 -3 6 -5 1 -5 -13z" />
    <path d="M1500 1290 c0 -7 3 -10 7 -7 3 4 3 10 0 14 -4 3 -7 0 -7 -7z" />
    <path d="M1430 1270 c0 -7 3 -10 7 -7 3 4 3 10 0 14 -4 3 -7 0 -7 -7z" />
    <path d="M1930 1255 c-7 -9 -11 -17 -9 -20 3 -2 10 5 17 15 14 24 10 26 -8 5z" />
    <path d="M1333 1253 c9 -2 25 -2 35 0 9 3 1 5 -18 5 -19 0 -27 -2 -17 -5z" />
    <path d="M1598 1253 c6 -2 18 -2 25 0 6 3 1 5 -13 5 -14 0 -19 -2 -12 -5z" />
    <path d="M2045 1250 c3 -5 8 -10 11 -10 3 0 2 5 -1 10 -3 6 -8 10 -11 10 -3 0
-2 -4 1 -10z" />
    <path d="M1770 1240 c0 -7 3 -10 7 -7 3 4 3 10 0 14 -4 3 -7 0 -7 -7z" />
    <path d="M2140 1240 l-15 -10 12 0 c6 0 15 5 18 10 8 12 4 12 -15 0z" />
    <path d="M1495 1163 l69 -4 9 -12 9 -12 -5 15 -4 15 -74 1 -74 1 70 -4z" />
    <path d="M1870 1160 c0 -7 3 -10 7 -7 3 4 3 10 0 14 -4 3 -7 0 -7 -7z" />
    <path d="M1605 1139 c-4 -6 -5 -12 -2 -15 2 -3 7 2 10 11 7 17 1 20 -8 4z" />
    <path d="M1636 1134 c-23 -23 -20 -30 4 -9 11 10 20 20 20 22 0 7 -9 2 -24
-13z" />
    <path d="M1693 1143 c4 -3 10 -3 14 0 3 4 0 7 -7 7 -7 0 -10 -3 -7 -7z" />
    <path d="M1936 1127 c3 -10 9 -15 12 -12 3 3 0 11 -7 18 l-12 12 7 -18z" />
    <path d="M1431 1114 l1 -19 5 13 c3 7 2 16 -1 19 -3 4 -6 -2 -5 -13z" />
    <path d="M1536 1095 c4 -8 8 -15 10 -15 2 0 4 7 4 15 0 8 -4 15 -10 15 -5 0
-7 -7 -4 -15z" />
    <path d="M1845 1079 c-4 -6 -5 -12 -2 -15 2 -3 7 2 10 11 7 17 1 20 -8 4z" />
    <path d="M2060 1020 c0 -6 7 -10 15 -10 8 0 15 2 15 4 0 2 -7 6 -15 10 -8 3
-15 1 -15 -4z" />
    <path d="M2108 1013 c6 -2 18 -2 25 0 6 3 1 5 -13 5 -14 0 -19 -2 -12 -5z" />
    <path d="M1343 953 c4 -3 10 -3 14 0 3 4 0 7 -7 7 -7 0 -10 -3 -7 -7z" />
  </g>
  <g transform="translate(0.000000,301.000000) scale(0.100000,-0.100000)" fill="#d5c4ec" stroke="none">
    <path d="M1461 2284 l1 -19 5 13 c3 7 2 16 -1 19 -3 4 -6 -2 -5 -13z" />
    <path d="M1400 2283 c0 -13 27 -49 33 -43 3 3 -3 16 -14 29 -10 13 -19 19 -19
14z" />
    <path d="M1490 2262 c0 -13 238 -242 251 -242 7 0 -33 43 -89 96 l-102 96 7
10 6 11 -11 -7 c-7 -4 -12 -4 -12 1 -1 11 -50 46 -50 35z" />
    <path d="M1360 2236 c0 -3 9 -10 20 -16 11 -6 20 -8 20 -6 0 3 -9 10 -20 16
-11 6 -20 8 -20 6z" />
    <path d="M1320 2220 c0 -7 3 -10 7 -7 3 4 3 10 0 14 -4 3 -7 0 -7 -7z" />
    <path d="M1485 2210 c3 -5 8 -10 11 -10 3 0 2 5 -1 10 -3 6 -8 10 -11 10 -3 0
-2 -4 1 -10z" />
    <path d="M2045 2160 c-3 -5 -1 -10 4 -10 6 0 11 5 11 10 0 6 -2 10 -4 10 -3 0
-8 -4 -11 -10z" />
    <path d="M1425 2150 c3 -5 8 -10 11 -10 3 0 2 5 -1 10 -3 6 -8 10 -11 10 -3 0
-2 -4 1 -10z" />
    <path d="M1944 2148 l-7 -11 11 7 c12 7 16 16 8 16 -3 0 -8 -5 -12 -12z" />
    <path d="M1363 2143 c4 -3 10 -3 14 0 3 4 0 7 -7 7 -7 0 -10 -3 -7 -7z" />
    <path d="M2101 2094 l1 -19 5 13 c3 7 2 16 -1 19 -3 4 -6 -2 -5 -13z" />
    <path d="M1986 2083 l-7 -18 12 12 c7 7 10 15 7 18 -3 3 -9 -2 -12 -12z" />
    <path d="M2070 2080 c0 -7 3 -10 7 -7 3 4 3 10 0 14 -4 3 -7 0 -7 -7z" />
    <path d="M2005 2060 l-6 -10 15 6 c18 7 21 14 7 14 -6 0 -13 -4 -16 -10z" />
    <path d="M2144 2058 l-7 -11 11 7 c12 7 16 16 8 16 -3 0 -8 -5 -12 -12z" />
    <path d="M1595 1890 c3 -5 8 -10 11 -10 3 0 2 5 -1 10 -3 6 -8 10 -11 10 -3 0
-2 -4 1 -10z" />
    <path d="M1510 1830 c0 -6 7 -10 15 -10 8 0 15 2 15 4 0 2 -7 6 -15 10 -8 3
-15 1 -15 -4z" />
    <path d="M1760 1744 c0 -13 108 -119 114 -113 3 3 -21 32 -54 64 -33 33 -60
55 -60 49z" />
    <path d="M2084 1458 l-7 -11 11 7 c7 4 12 9 12 12 0 8 -9 4 -16 -8z" />
    <path d="M1413 1443 c4 -3 10 -3 14 0 3 4 0 7 -7 7 -7 0 -10 -3 -7 -7z" />
    <path d="M1693 1443 c4 -3 10 -3 14 0 3 4 0 7 -7 7 -7 0 -10 -3 -7 -7z" />
    <path d="M1675 1294 c-9 -14 -14 -28 -12 -31 3 -3 13 9 22 26 19 38 14 41 -10
5z" />
    <path d="M1406 1285 c-9 -14 -13 -25 -8 -25 5 0 14 11 20 25 6 14 10 25 8 25
-2 0 -11 -11 -20 -25z" />
    <path d="M1240 1294 c1 -13 29 -48 34 -43 2 2 -4 15 -15 28 -10 13 -19 19 -19
15z" />
    <path d="M2174 1278 l-7 -11 11 7 c7 4 12 9 12 12 0 8 -9 4 -16 -8z" />
    <path d="M1515 1260 c3 -5 11 -10 16 -10 6 0 7 5 4 10 -3 6 -11 10 -16 10 -6
0 -7 -4 -4 -10z" />
    <path d="M1963 1253 c4 -3 10 -3 14 0 3 4 0 7 -7 7 -7 0 -10 -3 -7 -7z" />
    <path d="M1345 1160 l-6 -10 15 6 c18 7 21 14 7 14 -6 0 -13 -4 -16 -10z" />
    <path d="M1735 1130 c3 -5 8 -10 11 -10 2 0 4 5 4 10 0 6 -5 10 -11 10 -5 0
-7 -4 -4 -10z" />
    <path d="M1594 1118 l-7 -11 11 7 c12 7 16 16 8 16 -3 0 -8 -5 -12 -12z" />
    <path d="M1952 1079 c6 -16 12 -28 14 -26 5 5 -13 57 -20 57 -3 0 0 -14 6 -31z" />
    <path d="M1430 1080 c0 -7 3 -10 7 -7 3 4 3 10 0 14 -4 3 -7 0 -7 -7z" />
    <path d="M1920 1080 c0 -7 3 -10 7 -7 3 4 3 10 0 14 -4 3 -7 0 -7 -7z" />
    <path d="M1680 1066 c0 -2 9 -6 20 -9 l20 -5 -6 9 c-5 9 -34 13 -34 5z" />
    <path d="M1870 1060 c0 -7 3 -10 7 -7 3 4 3 10 0 14 -4 3 -7 0 -7 -7z" />
    <path d="M1645 1050 c3 -5 8 -10 11 -10 3 0 2 5 -1 10 -3 6 -8 10 -11 10 -3 0
-2 -4 1 -10z" />
    <path d="M1829 1033 c-5 -16 -12 -35 -15 -43 l-5 -15 9 10 c11 12 33 75 26 75
-2 0 -9 -12 -15 -27z" />
    <path d="M1753 1043 c4 -3 10 -3 14 0 3 4 0 7 -7 7 -7 0 -10 -3 -7 -7z" />
    <path d="M2170 1035 l-12 -15 10 0 c12 0 26 19 19 26 -2 2 -10 -2 -17 -11z" />
    <path d="M1786 1007 c3 -10 9 -15 12 -12 3 3 0 11 -7 18 l-12 12 7 -18z" />
    <path d="M1950 1001 c0 -6 4 -13 10 -16 l10 -6 -6 15 c-7 18 -14 21 -14 7z" />
    <path d="M1260 972 c0 -12 19 -26 26 -19 2 2 -2 10 -11 17 l-15 12 0 -10z" />
    <path d="M1830 960 c0 -7 3 -10 7 -7 3 4 3 10 0 14 -4 3 -7 0 -7 -7z" />
    <path d="M1400 950 c0 -7 3 -10 7 -7 3 4 3 10 0 14 -4 3 -7 0 -7 -7z" />
    <path d="M1570 940 c0 -7 3 -10 7 -7 3 4 3 10 0 14 -4 3 -7 0 -7 -7z" />
    <path d="M2150 934 c8 -10 15 -20 16 -22 1 -2 4 1 7 5 3 5 -4 15 -16 23 l-22
13 15 -19z" />
    <path d="M1980 930 c0 -5 5 -10 11 -10 5 0 7 5 4 10 -3 6 -8 10 -11 10 -2 0
-4 -4 -4 -10z" />
    <path d="M2030 930 c0 -7 3 -10 7 -7 3 4 3 10 0 14 -4 3 -7 0 -7 -7z" />
    <path d="M1765 850 c3 -5 8 -10 11 -10 3 0 2 5 -1 10 -3 6 -8 10 -11 10 -3 0
-2 -4 1 -10z" />
    <path d="M1590 835 l-12 -15 10 0 c5 0 12 7 16 15 3 8 4 15 2 15 -2 0 -9 -7
-16 -15z" />
    <path d="M1310 832 c0 -5 7 -9 15 -9 8 0 15 4 15 9 0 4 -7 8 -15 8 -8 0 -15
-4 -15 -8z" />
    <path d="M1348 817 l-6 -29 10 10 c6 6 8 18 6 28 l-4 19 -6 -28z" />
    <path d="M1914 828 l-7 -11 11 7 c12 7 16 16 8 16 -3 0 -8 -5 -12 -12z" />
    <path d="M2036 817 c3 -10 9 -15 12 -12 3 3 0 11 -7 18 l-12 12 7 -18z" />
    <path d="M1596 793 l-7 -18 12 12 c7 7 10 15 7 18 -3 3 -9 -2 -12 -12z" />
    <path d="M1570 790 c0 -7 3 -10 7 -7 3 4 3 10 0 14 -4 3 -7 0 -7 -7z" />
    <path d="M1995 790 c-3 -5 -1 -10 4 -10 6 0 11 5 11 10 0 6 -2 10 -4 10 -3 0
-8 -4 -11 -10z" />
  </g>
  <g transform="translate(0.000000,301.000000) scale(0.100000,-0.100000)" fill="#a17ad2" stroke="none">
    <path d="M1463 2323 c4 -3 10 -3 14 0 3 4 0 7 -7 7 -7 0 -10 -3 -7 -7z" />
    <path d="M1543 2303 c4 -3 10 -3 14 0 3 4 0 7 -7 7 -7 0 -10 -3 -7 -7z" />
    <path d="M1573 2303 c4 -3 10 -3 14 0 3 4 0 7 -7 7 -7 0 -10 -3 -7 -7z" />
    <path d="M1600 2247 c0 -3 45 -46 100 -97 55 -51 100 -90 100 -87 0 3 -45 46
-100 97 -55 51 -100 90 -100 87z" />
    <path d="M1524 2228 l-7 -11 11 7 c12 7 16 16 8 16 -3 0 -8 -5 -12 -12z" />
    <path d="M1353 2203 c4 -3 10 -3 14 0 3 4 0 7 -7 7 -7 0 -10 -3 -7 -7z" />
    <path d="M1430 2140 c0 -5 5 -10 11 -10 5 0 7 5 4 10 -3 6 -8 10 -11 10 -2 0
-4 -4 -4 -10z" />
    <path d="M2093 2133 c4 -3 10 -3 14 0 3 4 0 7 -7 7 -7 0 -10 -3 -7 -7z" />
    <path d="M2013 2113 c4 -3 10 -3 14 0 3 4 0 7 -7 7 -7 0 -10 -3 -7 -7z" />
    <path d="M1674 1748 l-19 -23 25 20 c14 11 27 21 29 22 2 2 0 3 -6 3 -5 0 -18
-10 -29 -22z" />
    <path d="M1840 1718 c41 -45 50 -53 50 -45 0 2 -21 23 -47 47 l-48 45 45 -47z" />
    <path d="M1790 1677 c0 -2 15 -16 33 -33 l32 -29 -29 33 c-28 30 -36 37 -36
29z" />
    <path d="M2148 1453 c7 -3 16 -2 19 1 4 3 -2 6 -13 5 l-19 -1 13 -5z" />
    <path d="M1423 1443 c4 -3 10 -3 14 0 3 4 0 7 -7 7 -7 0 -10 -3 -7 -7z" />
    <path d="M2103 1443 c4 -3 10 -3 14 0 3 4 0 7 -7 7 -7 0 -10 -3 -7 -7z" />
    <path d="M2019 1423 l-14 -18 18 14 c16 13 21 21 13 21 -2 0 -10 -8 -17 -17z" />
    <path d="M2190 1380 c0 -7 3 -10 7 -7 3 4 3 10 0 14 -4 3 -7 0 -7 -7z" />
    <path d="M1530 1320 c0 -7 3 -10 7 -7 3 4 3 10 0 14 -4 3 -7 0 -7 -7z" />
    <path d="M1690 1320 c0 -5 5 -10 10 -10 6 0 10 5 10 10 0 6 -4 10 -10 10 -5 0
-10 -4 -10 -10z" />
    <path d="M2220 1310 c0 -7 3 -10 7 -7 3 4 3 10 0 14 -4 3 -7 0 -7 -7z" />
    <path d="M1720 1300 c0 -7 3 -10 7 -7 3 4 3 10 0 14 -4 3 -7 0 -7 -7z" />
    <path d="M2190 1300 c0 -7 3 -10 7 -7 3 4 3 10 0 14 -4 3 -7 0 -7 -7z" />
    <path d="M1540 1286 c0 -2 8 -10 18 -17 l17 -14 -14 18 c-13 16 -21 21 -21 13z" />
    <path d="M1270 1256 c0 -2 8 -10 18 -17 l17 -14 -14 18 c-13 16 -21 21 -21 13z" />
    <path d="M1530 1256 c0 -2 8 -10 18 -17 l17 -14 -14 18 c-13 16 -21 21 -21 13z" />
    <path d="M1635 1250 c26 -11 45 -12 45 -2 0 4 -15 8 -33 9 l-32 1 20 -8z" />
    <path d="M1373 1233 c4 -3 10 -3 14 0 3 4 0 7 -7 7 -7 0 -10 -3 -7 -7z" />
    <path d="M2103 1233 c4 -3 10 -3 14 0 3 4 0 7 -7 7 -7 0 -10 -3 -7 -7z" />
    <path d="M1740 1166 c0 -2 8 -10 18 -17 l17 -14 -14 18 c-13 16 -21 21 -21 13z" />
    <path d="M1310 1150 c-24 -15 -7 -18 20 -3 l25 13 -15 0 c-8 0 -22 -4 -30 -10z" />
    <path d="M1861 1129 c-6 -18 -11 -37 -10 -43 0 -6 7 7 15 28 8 22 12 41 10 43
-2 2 -9 -10 -15 -28z" />
    <path d="M1931 1144 l1 -19 5 13 c3 7 2 16 -1 19 -3 4 -6 -2 -5 -13z" />
    <path d="M1911 1114 l1 -19 5 13 c3 7 2 16 -1 19 -3 4 -6 -2 -5 -13z" />
    <path d="M2180 1100 c0 -7 3 -10 7 -7 3 4 3 10 0 14 -4 3 -7 0 -7 -7z" />
    <path d="M1625 1090 c3 -5 8 -10 11 -10 3 0 2 5 -1 10 -3 6 -8 10 -11 10 -3 0
-2 -4 1 -10z" />
    <path d="M1880 1090 c0 -7 3 -10 7 -7 3 4 3 10 0 14 -4 3 -7 0 -7 -7z" />
    <path d="M1251 1074 l1 -19 5 13 c3 7 2 16 -1 19 -3 4 -6 -2 -5 -13z" />
    <path d="M1723 1023 c4 -3 10 -3 14 0 3 4 0 7 -7 7 -7 0 -10 -3 -7 -7z" />
    <path d="M1280 1010 c0 -7 3 -10 7 -7 3 4 3 10 0 14 -4 3 -7 0 -7 -7z" />
    <path d="M1950 1010 c0 -7 3 -10 7 -7 3 4 3 10 0 14 -4 3 -7 0 -7 -7z" />
    <path d="M2138 1013 c7 -3 16 -2 19 1 4 3 -2 6 -13 5 l-19 -1 13 -5z" />
    <path d="M2160 1000 c-24 -15 -7 -18 20 -3 l25 13 -15 0 c-8 0 -22 -4 -30 -10z" />
    <path d="M1250 991 c0 -6 4 -13 10 -16 l10 -6 -6 15 c-7 18 -14 21 -14 7z" />
    <path d="M1840 990 c0 -7 3 -10 7 -7 3 4 3 10 0 14 -4 3 -7 0 -7 -7z" />
    <path d="M1625 960 c10 -11 20 -20 23 -20 3 0 -3 9 -13 20 -10 11 -20 20 -23
20 -3 0 3 -9 13 -20z" />
    <path d="M1774 958 l-7 -11 11 7 c12 7 16 16 8 16 -3 0 -8 -5 -12 -12z" />
    <path d="M1690 936 c0 -2 7 -6 15 -10 8 -3 15 -1 15 4 0 6 -7 10 -15 10 -8 0
-15 -2 -15 -4z" />
    <path d="M1733 853 c4 -3 10 -3 14 0 3 4 0 7 -7 7 -7 0 -10 -3 -7 -7z" />
    <path d="M2010 850 c0 -5 7 -10 16 -10 l15 0 -6 10 c-3 6 -10 10 -16 10 -5 0
-9 -4 -9 -10z" />
    <path d="M1333 795 c0 -8 4 -12 9 -9 5 3 6 10 3 15 -9 13 -12 11 -12 -6z" />
    <path d="M1750 790 c0 -5 5 -10 11 -10 5 0 7 5 4 10 -3 6 -8 10 -11 10 -2 0
-4 -4 -4 -10z" />
    <path d="M2000 790 c0 -7 3 -10 7 -7 3 4 3 10 0 14 -4 3 -7 0 -7 -7z" />
  </g>
  <g transform="translate(0.000000,301.000000) scale(0.100000,-0.100000)" fill="#ddceef" stroke="none">
    <path d="M1413 2313 c4 -3 10 -3 14 0 3 4 0 7 -7 7 -7 0 -10 -3 -7 -7z" />
    <path d="M1490 2300 c0 -7 3 -10 7 -7 3 4 3 10 0 14 -4 3 -7 0 -7 -7z" />
    <path d="M1400 2290 c0 -7 3 -10 7 -7 3 4 3 10 0 14 -4 3 -7 0 -7 -7z" />
    <path d="M1570 2280 c0 -7 3 -10 7 -7 3 4 3 10 0 14 -4 3 -7 0 -7 -7z" />
    <path d="M2050 2220 c0 -7 3 -10 7 -7 3 4 3 10 0 14 -4 3 -7 0 -7 -7z" />
    <path d="M1502 2190 c7 -10 14 -18 15 -16 6 6 -9 36 -18 36 -5 0 -4 -9 3 -20z" />
    <path d="M1865 2189 c-4 -6 -5 -12 -2 -15 2 -3 7 2 10 11 7 17 1 20 -8 4z" />
    <path d="M1440 2130 c8 -5 20 -10 25 -10 6 0 3 5 -5 10 -8 5 -19 10 -25 10 -5
0 -3 -5 5 -10z" />
    <path d="M2084 2128 l-7 -11 11 7 c7 4 12 9 12 12 0 8 -9 4 -16 -8z" />
    <path d="M1893 2123 c4 -3 10 -3 14 0 3 4 0 7 -7 7 -7 0 -10 -3 -7 -7z" />
    <path d="M2145 2120 c3 -5 8 -10 11 -10 2 0 4 5 4 10 0 6 -5 10 -11 10 -5 0
-7 -4 -4 -10z" />
    <path d="M2160 2090 c0 -7 3 -10 7 -7 3 4 3 10 0 14 -4 3 -7 0 -7 -7z" />
    <path d="M1863 1633 c4 -3 10 -3 14 0 3 4 0 7 -7 7 -7 0 -10 -3 -7 -7z" />
    <path d="M2135 1460 c3 -5 8 -10 11 -10 3 0 2 5 -1 10 -3 6 -8 10 -11 10 -3 0
-2 -4 1 -10z" />
    <path d="M2165 1450 c3 -5 8 -10 11 -10 3 0 2 5 -1 10 -3 6 -8 10 -11 10 -3 0
-2 -4 1 -10z" />
    <path d="M2193 1423 c4 -3 10 -3 14 0 3 4 0 7 -7 7 -7 0 -10 -3 -7 -7z" />
    <path d="M1535 1310 c3 -5 8 -10 11 -10 3 0 2 5 -1 10 -3 6 -8 10 -11 10 -3 0
-2 -4 1 -10z" />
    <path d="M1444 1298 l-7 -11 11 7 c12 7 16 16 8 16 -3 0 -8 -5 -12 -12z" />
    <path d="M1495 1300 c3 -5 8 -10 11 -10 3 0 2 5 -1 10 -3 6 -8 10 -11 10 -3 0
-2 -4 1 -10z" />
    <path d="M2000 1301 c0 -6 4 -13 10 -16 l10 -6 -6 15 c-7 18 -14 21 -14 7z" />
    <path d="M1280 1290 c0 -7 3 -10 7 -7 3 4 3 10 0 14 -4 3 -7 0 -7 -7z" />
    <path d="M1513 1263 c4 -3 10 -3 14 0 3 4 0 7 -7 7 -7 0 -10 -3 -7 -7z" />
    <path d="M2073 1263 c4 -3 10 -3 14 0 3 4 0 7 -7 7 -7 0 -10 -3 -7 -7z" />
    <path d="M1670 1249 c0 -5 5 -7 10 -4 6 3 10 8 10 11 0 2 -4 4 -10 4 -5 0 -10
-5 -10 -11z" />
    <path d="M2163 1243 c4 -3 10 -3 14 0 3 4 0 7 -7 7 -7 0 -10 -3 -7 -7z" />
    <path d="M1293 1233 c4 -3 10 -3 14 0 3 4 0 7 -7 7 -7 0 -10 -3 -7 -7z" />
    <path d="M1383 1233 c4 -3 10 -3 14 0 3 4 0 7 -7 7 -7 0 -10 -3 -7 -7z" />
    <path d="M2073 1233 c4 -3 10 -3 14 0 3 4 0 7 -7 7 -7 0 -10 -3 -7 -7z" />
    <path d="M1643 1163 c4 -3 10 -3 14 0 3 4 0 7 -7 7 -7 0 -10 -3 -7 -7z" />
    <path d="M1733 1163 c4 -3 10 -3 14 0 3 4 0 7 -7 7 -7 0 -10 -3 -7 -7z" />
    <path d="M1615 1150 c-3 -5 -1 -10 4 -10 6 0 11 5 11 10 0 6 -2 10 -4 10 -3 0
-8 -4 -11 -10z" />
    <path d="M1295 1140 c-3 -5 -1 -10 4 -10 6 0 11 5 11 10 0 6 -2 10 -4 10 -3 0
-8 -4 -11 -10z" />
    <path d="M1663 1143 c4 -3 10 -3 14 0 3 4 0 7 -7 7 -7 0 -10 -3 -7 -7z" />
    <path d="M1293 1103 c4 -3 10 -3 14 0 3 4 0 7 -7 7 -7 0 -10 -3 -7 -7z" />
    <path d="M1533 1103 c4 -3 10 -3 14 0 3 4 0 7 -7 7 -7 0 -10 -3 -7 -7z" />
    <path d="M2185 1090 c3 -5 8 -10 11 -10 3 0 2 5 -1 10 -3 6 -8 10 -11 10 -3 0
-2 -4 1 -10z" />
    <path d="M1617 1059 c7 -7 15 -10 18 -7 3 3 -2 9 -12 12 l-18 7 12 -12z" />
    <path d="M1930 1050 c0 -7 3 -10 7 -7 3 4 3 10 0 14 -4 3 -7 0 -7 -7z" />
    <path d="M2220 1040 c0 -7 3 -10 7 -7 3 4 3 10 0 14 -4 3 -7 0 -7 -7z" />
    <path d="M1715 1030 c3 -5 8 -10 11 -10 3 0 2 5 -1 10 -3 6 -8 10 -11 10 -3 0
-2 -4 1 -10z" />
    <path d="M1970 1030 c0 -7 3 -10 7 -7 3 4 3 10 0 14 -4 3 -7 0 -7 -7z" />
    <path d="M1980 1000 c0 -7 3 -10 7 -7 3 4 3 10 0 14 -4 3 -7 0 -7 -7z" />
    <path d="M1610 990 c0 -7 3 -10 7 -7 3 4 3 10 0 14 -4 3 -7 0 -7 -7z" />
    <path d="M1585 980 c3 -5 8 -10 11 -10 2 0 4 5 4 10 0 6 -5 10 -11 10 -5 0 -7
-4 -4 -10z" />
    <path d="M1744 968 l-7 -11 11 7 c12 7 16 16 8 16 -3 0 -8 -5 -12 -12z" />
    <path d="M1960 971 c0 -6 4 -13 10 -16 l10 -6 -6 15 c-7 18 -14 21 -14 7z" />
    <path d="M1800 950 c0 -7 3 -10 7 -7 3 4 3 10 0 14 -4 3 -7 0 -7 -7z" />
    <path d="M1643 943 c4 -3 10 -3 14 0 3 4 0 7 -7 7 -7 0 -10 -3 -7 -7z" />
    <path d="M1570 930 c0 -7 3 -10 7 -7 3 4 3 10 0 14 -4 3 -7 0 -7 -7z" />
    <path d="M1734 928 l-7 -11 11 7 c12 7 16 16 8 16 -3 0 -8 -5 -12 -12z" />
    <path d="M1995 930 c-3 -5 -1 -10 4 -10 6 0 11 5 11 10 0 6 -2 10 -4 10 -3 0
-8 -4 -11 -10z" />
    <path d="M2173 923 c4 -3 10 -3 14 0 3 4 0 7 -7 7 -7 0 -10 -3 -7 -7z" />
    <path d="M1570 850 c0 -7 3 -10 7 -7 3 4 3 10 0 14 -4 3 -7 0 -7 -7z" />
    <path d="M2023 835 c0 -8 4 -15 8 -15 4 0 9 7 13 15 l5 15 -13 0 c-7 0 -13 -7
-13 -15z" />
    <path d="M1774 820 l0 -20 10 10 10 10 -10 10 -10 10 0 -20z" />
    <path d="M1580 820 c0 -5 5 -10 10 -10 6 0 10 5 10 10 0 6 -4 10 -10 10 -5 0
-10 -4 -10 -10z" />
    <path d="M1750 800 c0 -7 3 -10 7 -7 3 4 3 10 0 14 -4 3 -7 0 -7 -7z" />
    <path d="M2036 793 l-7 -18 12 12 c7 7 10 15 7 18 -3 3 -9 -2 -12 -12z" />
  </g>
  <g transform="translate(0.000000,301.000000) scale(0.100000,-0.100000)" fill="#7c45c0" stroke="none">
    <path d="M1490 2260 c0 -12 238 -240 251 -240 6 0 -11 17 -38 39 -26 21 -85
77 -130 123 -46 47 -83 82 -83 78z" />
    <path d="M1450 2160 c0 -7 3 -10 7 -7 3 4 3 10 0 14 -4 3 -7 0 -7 -7z" />
    <path d="M1473 2153 c4 -3 10 -3 14 0 3 4 0 7 -7 7 -7 0 -10 -3 -7 -7z" />
    <path d="M1898 2153 c6 -2 18 -2 25 0 6 3 1 5 -13 5 -14 0 -19 -2 -12 -5z" />
    <path d="M2080 2120 c0 -7 3 -10 7 -7 3 4 3 10 0 14 -4 3 -7 0 -7 -7z" />
    <path d="M1995 2060 c3 -5 8 -10 11 -10 3 0 2 5 -1 10 -3 6 -8 10 -11 10 -3 0
-2 -4 1 -10z" />
    <path d="M1760 1744 c0 -5 26 -34 58 -64 l57 -55 -55 60 c-30 33 -56 62 -57
64 -2 2 -3 0 -3 -5z" />
    <path d="M2073 1453 c4 -3 10 -3 14 0 3 4 0 7 -7 7 -7 0 -10 -3 -7 -7z" />
    <path d="M2184 1288 l-7 -11 11 7 c7 4 12 9 12 12 0 8 -9 4 -16 -8z" />
    <path d="M1665 1271 c-3 -5 -2 -12 3 -15 5 -3 9 1 9 9 0 17 -3 19 -12 6z" />
    <path d="M1393 1263 c4 -3 10 -3 14 0 3 4 0 7 -7 7 -7 0 -10 -3 -7 -7z" />
    <path d="M1645 1250 c3 -5 8 -10 11 -10 3 0 2 5 -1 10 -3 6 -8 10 -11 10 -3 0
-2 -4 1 -10z" />
    <path d="M2145 1250 c3 -5 11 -10 16 -10 6 0 7 5 4 10 -3 6 -11 10 -16 10 -6
0 -7 -4 -4 -10z" />
    <path d="M1345 1150 c3 -5 8 -10 11 -10 3 0 2 5 -1 10 -3 6 -8 10 -11 10 -3 0
-2 -4 1 -10z" />
    <path d="M1460 1140 c0 -7 3 -10 7 -7 3 4 3 10 0 14 -4 3 -7 0 -7 -7z" />
    <path d="M1610 1146 c0 -2 7 -7 16 -10 l15 -6 -6 10 c-6 10 -25 14 -25 6z" />
    <path d="M1293 1133 c4 -3 10 -3 14 0 3 4 0 7 -7 7 -7 0 -10 -3 -7 -7z" />
    <path d="M2210 1111 c0 -6 4 -13 10 -16 l10 -6 -6 15 c-7 18 -14 21 -14 7z" />
    <path d="M1713 1053 c4 -3 10 -3 14 0 3 4 0 7 -7 7 -7 0 -10 -3 -7 -7z" />
    <path d="M2165 1028 l-20 -21 23 12 c12 6 22 16 22 21 0 13 -2 12 -25 -12z" />
    <path d="M1292 990 c7 -11 17 -20 22 -20 5 0 1 9 -9 20 -10 11 -20 20 -22 20
-2 0 2 -9 9 -20z" />
    <path d="M1333 953 c4 -3 10 -3 14 0 3 4 0 7 -7 7 -7 0 -10 -3 -7 -7z" />
    <path d="M1770 840 c0 -7 3 -10 7 -7 3 4 3 10 0 14 -4 3 -7 0 -7 -7z" />
    <path d="M1890 826 c0 -2 7 -6 15 -10 8 -3 15 -1 15 4 0 6 -7 10 -15 10 -8 0
-15 -2 -15 -4z" />
    <path d="M1575 809 c-11 -17 1 -21 15 -4 l12 15 -10 0 c-6 0 -14 -5 -17 -11z" />
    <path d="M2020 795 c0 -8 4 -15 10 -15 5 0 7 7 4 15 -4 8 -8 15 -10 15 -2 0
-4 -7 -4 -15z" />
    <path d="M1755 790 c3 -5 8 -10 11 -10 3 0 2 5 -1 10 -3 6 -8 10 -11 10 -3 0
-2 -4 1 -10z" />
  </g>
  <g transform="translate(0.000000,301.000000) scale(0.100000,-0.100000)" fill="#cdb9e7" stroke="none">
    <path d="M1373 2223 c4 -3 10 -3 14 0 3 4 0 7 -7 7 -7 0 -10 -3 -7 -7z" />
    <path d="M1984 2218 l-7 -11 11 7 c7 4 12 9 12 12 0 8 -9 4 -16 -8z" />
    <path d="M1860 2170 c0 -7 3 -10 7 -7 3 4 3 10 0 14 -4 3 -7 0 -7 -7z" />
    <path d="M1320 2160 c0 -5 5 -10 11 -10 5 0 7 5 4 10 -3 6 -8 10 -11 10 -2 0
-4 -4 -4 -10z" />
    <path d="M1463 2123 c4 -3 10 -3 14 0 3 4 0 7 -7 7 -7 0 -10 -3 -7 -7z" />
    <path d="M1903 2123 c4 -3 10 -3 14 0 3 4 0 7 -7 7 -7 0 -10 -3 -7 -7z" />
    <path d="M1592 2000 c0 -19 2 -27 5 -17 2 9 2 25 0 35 -3 9 -5 1 -5 -18z" />
    <path d="M2216 1387 c3 -10 9 -15 12 -12 3 3 0 11 -7 18 l-12 12 7 -18z" />
    <path d="M1378 1143 c7 -3 16 -2 19 1 4 3 -2 6 -13 5 l-19 -1 13 -5z" />
    <path d="M1324 1128 l-7 -11 11 7 c12 7 16 16 8 16 -3 0 -8 -5 -12 -12z" />
    <path d="M1431 1094 l1 -19 5 13 c3 7 2 16 -1 19 -3 4 -6 -2 -5 -13z" />
    <path d="M2022 1090 c0 -14 2 -19 5 -12 2 6 2 18 0 25 -3 6 -5 1 -5 -13z" />
    <path d="M1280 1070 c0 -7 3 -10 7 -7 3 4 3 10 0 14 -4 3 -7 0 -7 -7z" />
    <path d="M1245 1059 c-4 -6 -5 -12 -2 -15 2 -3 7 2 10 11 7 17 1 20 -8 4z" />
    <path d="M2062 1035 l0 -30 5 18 c2 9 2 23 0 30 -3 6 -5 -1 -5 -18z" />
    <path d="M1245 1000 c3 -5 8 -10 11 -10 3 0 2 5 -1 10 -3 6 -8 10 -11 10 -3 0
-2 -4 1 -10z" />
    <path d="M2164 998 l-7 -11 11 7 c12 7 16 16 8 16 -3 0 -8 -5 -12 -12z" />
    <path d="M1305 980 c3 -5 8 -10 11 -10 3 0 2 5 -1 10 -3 6 -8 10 -11 10 -3 0
-2 -4 1 -10z" />
    <path d="M1714 938 l-7 -11 11 7 c12 7 16 16 8 16 -3 0 -8 -5 -12 -12z" />
    <path d="M2030 940 c0 -7 3 -10 7 -7 3 4 3 10 0 14 -4 3 -7 0 -7 -7z" />
    <path d="M1743 933 c4 -3 10 -3 14 0 3 4 0 7 -7 7 -7 0 -10 -3 -7 -7z" />
    <path d="M1800 930 c0 -5 5 -10 11 -10 5 0 7 5 4 10 -3 6 -8 10 -11 10 -2 0
-4 -4 -4 -10z" />
    <path d="M1986 928 c3 -5 10 -6 15 -3 13 9 11 12 -6 12 -8 0 -12 -4 -9 -9z" />
    <path d="M1353 923 c9 -2 23 -2 30 0 6 3 -1 5 -18 5 l-30 0 18 -5z" />
    <path d="M1312 815 l0 -30 5 18 c2 9 2 23 0 30 -3 6 -5 -1 -5 -18z" />
    <path d="M2023 823 c4 -3 10 -3 14 0 3 4 0 7 -7 7 -7 0 -10 -3 -7 -7z" />
    <path d="M2023 783 c4 -3 10 -3 14 0 3 4 0 7 -7 7 -7 0 -10 -3 -7 -7z" />
  </g>
  <g transform="translate(0.000000,301.000000) scale(0.100000,-0.100000)" fill="#a884d6" stroke="none">
    <path d="M1455 2300 c3 -5 8 -10 11 -10 3 0 2 5 -1 10 -3 6 -8 10 -11 10 -3 0
-2 -4 1 -10z" />
    <path d="M1573 2223 c4 -3 10 -3 14 0 3 4 0 7 -7 7 -7 0 -10 -3 -7 -7z" />
    <path d="M1903 2153 c4 -3 10 -3 14 0 3 4 0 7 -7 7 -7 0 -10 -3 -7 -7z" />
    <path d="M1934 2138 l-7 -11 11 7 c12 7 16 16 8 16 -3 0 -8 -5 -12 -12z" />
    <path d="M2040 2090 c0 -7 3 -10 7 -7 3 4 3 10 0 14 -4 3 -7 0 -7 -7z" />
    <path d="M1960 2060 c0 -7 3 -10 7 -7 3 4 3 10 0 14 -4 3 -7 0 -7 -7z" />
    <path d="M1983 2033 c4 -3 10 -3 14 0 3 4 0 7 -7 7 -7 0 -10 -3 -7 -7z" />
    <path d="M1515 1830 c3 -5 8 -10 11 -10 3 0 2 5 -1 10 -3 6 -8 10 -11 10 -3 0
-2 -4 1 -10z" />
    <path d="M1940 1730 c0 -7 3 -10 7 -7 3 4 3 10 0 14 -4 3 -7 0 -7 -7z" />
    <path d="M2034 1438 l-7 -11 11 7 c12 7 16 16 8 16 -3 0 -8 -5 -12 -12z" />
    <path d="M2153 1243 c4 -3 10 -3 14 0 3 4 0 7 -7 7 -7 0 -10 -3 -7 -7z" />
    <path d="M1905 1130 c3 -5 8 -10 11 -10 3 0 2 5 -1 10 -3 6 -8 10 -11 10 -3 0
-2 -4 1 -10z" />
    <path d="M1940 1110 c0 -7 3 -10 7 -7 3 4 3 10 0 14 -4 3 -7 0 -7 -7z" />
    <path d="M1920 1090 c0 -7 3 -10 7 -7 3 4 3 10 0 14 -4 3 -7 0 -7 -7z" />
    <path d="M1950 1080 c0 -7 3 -10 7 -7 3 4 3 10 0 14 -4 3 -7 0 -7 -7z" />
    <path d="M1870 1070 c0 -7 3 -10 7 -7 3 4 3 10 0 14 -4 3 -7 0 -7 -7z" />
    <path d="M1840 1060 c0 -7 3 -10 7 -7 3 4 3 10 0 14 -4 3 -7 0 -7 -7z" />
    <path d="M1633 1053 c4 -3 10 -3 14 0 3 4 0 7 -7 7 -7 0 -10 -3 -7 -7z" />
    <path d="M1830 1030 c0 -7 3 -10 7 -7 3 4 3 10 0 14 -4 3 -7 0 -7 -7z" />
    <path d="M1820 1000 c0 -7 3 -10 7 -7 3 4 3 10 0 14 -4 3 -7 0 -7 -7z" />
    <path d="M1295 990 c3 -5 8 -10 11 -10 3 0 2 5 -1 10 -3 6 -8 10 -11 10 -3 0
-2 -4 1 -10z" />
    <path d="M2125 980 c3 -5 8 -10 11 -10 3 0 2 5 -1 10 -3 6 -8 10 -11 10 -3 0
-2 -4 1 -10z" />
    <path d="M1830 970 c0 -7 3 -10 7 -7 3 4 3 10 0 14 -4 3 -7 0 -7 -7z" />
    <path d="M1287 949 c7 -7 15 -10 18 -7 3 3 -2 9 -12 12 l-18 7 12 -12z" />
    <path d="M1800 940 c0 -7 3 -10 7 -7 3 4 3 10 0 14 -4 3 -7 0 -7 -7z" />
    <path d="M2155 930 c3 -5 8 -10 11 -10 3 0 2 5 -1 10 -3 6 -8 10 -11 10 -3 0
-2 -4 1 -10z" />
    <path d="M1470 820 c0 -7 3 -10 7 -7 3 4 3 10 0 14 -4 3 -7 0 -7 -7z" />
    <path d="M1580 815 c-7 -9 -10 -18 -6 -22 3 -3 6 -1 6 6 l0 13 15 -6 c8 -3 15
-1 15 4 0 17 -18 20 -30 5z" />
    <path d="M1883 823 c4 -3 10 -3 14 0 3 4 0 7 -7 7 -7 0 -10 -3 -7 -7z" />
    <path d="M1710 810 c0 -7 3 -10 7 -7 3 4 3 10 0 14 -4 3 -7 0 -7 -7z" />
    <path d="M1470 790 c0 -7 3 -10 7 -7 3 4 3 10 0 14 -4 3 -7 0 -7 -7z" />
  </g>
  <g transform="translate(0.000000,301.000000) scale(0.100000,-0.100000)" fill="#7c44bf" stroke="none">
    <path d="M1544 2278 l-7 -11 11 7 c12 7 16 16 8 16 -3 0 -8 -5 -12 -12z" />
    <path d="M1410 2266 c0 -2 8 -10 18 -17 l17 -14 -14 18 c-13 16 -21 21 -21 13z" />
    <path d="M1475 2180 c3 -5 8 -10 11 -10 2 0 4 5 4 10 0 6 -5 10 -11 10 -5 0
-7 -4 -4 -10z" />
    <path d="M1893 2183 c4 -3 10 -3 14 0 3 4 0 7 -7 7 -7 0 -10 -3 -7 -7z" />
    <path d="M1310 2176 c0 -2 8 -10 18 -17 l17 -14 -14 18 c-13 16 -21 21 -21 13z" />
    <path d="M2044 2158 l-7 -11 11 7 c12 7 16 16 8 16 -3 0 -8 -5 -12 -12z" />
    <path d="M2015 2090 c3 -5 8 -10 11 -10 3 0 2 5 -1 10 -3 6 -8 10 -11 10 -3 0
-2 -4 1 -10z" />
    <path d="M2035 1389 c-4 -6 -5 -12 -2 -15 2 -3 7 2 10 11 7 17 1 20 -8 4z" />
    <path d="M1434 1278 l-7 -11 11 7 c7 4 12 9 12 12 0 8 -9 4 -16 -8z" />
    <path d="M1250 1276 c0 -2 8 -10 18 -17 l17 -14 -14 18 c-13 16 -21 21 -21 13z" />
    <path d="M1525 1260 c3 -5 8 -10 11 -10 3 0 2 5 -1 10 -3 6 -8 10 -11 10 -3 0
-2 -4 1 -10z" />
    <path d="M1673 1253 c4 -3 10 -3 14 0 3 4 0 7 -7 7 -7 0 -10 -3 -7 -7z" />
    <path d="M2145 1250 c3 -5 8 -10 11 -10 3 0 2 5 -1 10 -3 6 -8 10 -11 10 -3 0
-2 -4 1 -10z" />
    <path d="M1864 1138 l-7 -11 11 7 c12 7 16 16 8 16 -3 0 -8 -5 -12 -12z" />
    <path d="M2123 1143 c4 -3 10 -3 14 0 3 4 0 7 -7 7 -7 0 -10 -3 -7 -7z" />
    <path d="M1733 1133 c4 -3 10 -3 14 0 3 4 0 7 -7 7 -7 0 -10 -3 -7 -7z" />
    <path d="M1854 1108 l-7 -11 11 7 c7 4 12 9 12 12 0 8 -9 4 -16 -8z" />
    <path d="M1590 980 c0 -7 3 -10 7 -7 3 4 3 10 0 14 -4 3 -7 0 -7 -7z" />
    <path d="M1834 978 l-7 -11 11 7 c12 7 16 16 8 16 -3 0 -8 -5 -12 -12z" />
    <path d="M1260 976 c0 -2 8 -10 18 -17 l17 -14 -14 18 c-13 16 -21 21 -21 13z" />
    <path d="M1305 940 c3 -5 8 -10 11 -10 3 0 2 5 -1 10 -3 6 -8 10 -11 10 -3 0
-2 -4 1 -10z" />
    <path d="M1632 941 l-14 -8 14 -6 15 -5 0 14 c0 8 -1 14 -1 14 -1 0 -7 -4 -14
-9z" />
    <path d="M2163 923 c4 -3 10 -3 14 0 3 4 0 7 -7 7 -7 0 -10 -3 -7 -7z" />
    <path d="M2018 843 c7 -3 16 -2 19 1 4 3 -2 6 -13 5 l-19 -1 13 -5z" />
    <path d="M1330 830 c0 -7 3 -10 7 -7 3 4 3 10 0 14 -4 3 -7 0 -7 -7z" />
    <path d="M1595 821 c-11 -5 -24 -6 -29 -3 -5 3 -6 0 -3 -6 8 -11 44 -5 53 9 6
10 6 10 -21 0z" />
    <path d="M1910 820 c0 -7 3 -10 7 -7 3 4 3 10 0 14 -4 3 -7 0 -7 -7z" />
    <path d="M1770 800 c0 -7 3 -10 7 -7 3 4 3 10 0 14 -4 3 -7 0 -7 -7z" />
  </g>
  <g transform="translate(0.000000,301.000000) scale(0.100000,-0.100000)" fill="#b79add" stroke="none">
    <path d="M1490 2290 c0 -7 3 -10 7 -7 3 4 3 10 0 14 -4 3 -7 0 -7 -7z" />
    <path d="M1314 2208 l-7 -11 11 7 c12 7 16 16 8 16 -3 0 -8 -5 -12 -12z" />
    <path d="M2056 2207 c3 -10 9 -15 12 -12 3 3 0 11 -7 18 l-12 12 7 -18z" />
    <path d="M1475 2180 c3 -5 8 -10 11 -10 3 0 2 5 -1 10 -3 6 -8 10 -11 10 -3 0
-2 -4 1 -10z" />
    <path d="M2034 2048 l-7 -11 11 7 c12 7 16 16 8 16 -3 0 -8 -5 -12 -12z" />
    <path d="M1440 1290 c0 -7 3 -10 7 -7 3 4 3 10 0 14 -4 3 -7 0 -7 -7z" />
    <path d="M1303 1233 c4 -3 10 -3 14 0 3 4 0 7 -7 7 -7 0 -10 -3 -7 -7z" />
    <path d="M1280 1080 c0 -7 3 -10 7 -7 3 4 3 10 0 14 -4 3 -7 0 -7 -7z" />
    <path d="M1610 980 c0 -7 3 -10 7 -7 3 4 3 10 0 14 -4 3 -7 0 -7 -7z" />
    <path d="M1960 980 c0 -7 3 -10 7 -7 3 4 3 10 0 14 -4 3 -7 0 -7 -7z" />
    <path d="M1350 820 c0 -7 3 -10 7 -7 3 4 3 10 0 14 -4 3 -7 0 -7 -7z" />
    <path d="M1583 813 c4 -3 10 -3 14 0 3 4 0 7 -7 7 -7 0 -10 -3 -7 -7z" />
    <path d="M1764 788 l-7 -11 11 7 c12 7 16 16 8 16 -3 0 -8 -5 -12 -12z" />
  </g>
  <g transform="translate(0.000000,301.000000) scale(0.100000,-0.100000)" fill="#996fce" stroke="none">
    <path d="M2005 2180 c3 -5 8 -10 11 -10 3 0 2 5 -1 10 -3 6 -8 10 -11 10 -3 0
-2 -4 1 -10z" />
    <path d="M1830 1820 c0 -7 3 -10 7 -7 3 4 3 10 0 14 -4 3 -7 0 -7 -7z" />
    <path d="M1653 1143 c4 -3 10 -3 14 0 3 4 0 7 -7 7 -7 0 -10 -3 -7 -7z" />
    <path d="M1606 837 c3 -10 9 -15 12 -12 3 3 0 11 -7 18 l-12 12 7 -18z" />
    <path d="M1730 830 c0 -7 3 -10 7 -7 3 4 3 10 0 14 -4 3 -7 0 -7 -7z" />
    <path d="M1560 820 c0 -7 3 -10 7 -7 3 4 3 10 0 14 -4 3 -7 0 -7 -7z" />
  </g>
  <g transform="translate(0.000000,301.000000) scale(0.100000,-0.100000)" fill="#c6aee4" stroke="none">
    <path d="M1490 2270 c0 -7 3 -10 7 -7 3 4 3 10 0 14 -4 3 -7 0 -7 -7z" />
    <path d="M1993 2223 c4 -3 10 -3 14 0 3 4 0 7 -7 7 -7 0 -10 -3 -7 -7z" />
    <path d="M1455 2179 c-11 -16 -1 -19 13 -3 l13 14 -10 0 c-5 0 -13 -5 -16 -11z" />
    <path d="M1900 2186 c0 -2 7 -7 16 -10 l15 -6 -6 10 c-6 10 -25 14 -25 6z" />
    <path d="M1510 2170 c0 -7 3 -10 7 -7 3 4 3 10 0 14 -4 3 -7 0 -7 -7z" />
    <path d="M2034 2148 l-7 -11 11 7 c12 7 16 16 8 16 -3 0 -8 -5 -12 -12z" />
    <path d="M1985 2070 c3 -5 8 -10 11 -10 3 0 2 5 -1 10 -3 6 -8 10 -11 10 -3 0
-2 -4 1 -10z" />
    <path d="M2214 1298 l-7 -11 11 7 c7 4 12 9 12 12 0 8 -9 4 -16 -8z" />
    <path d="M1780 970 c0 -7 3 -10 7 -7 3 4 3 10 0 14 -4 3 -7 0 -7 -7z" />
    <path d="M1600 850 c0 -7 3 -10 7 -7 3 4 3 10 0 14 -4 3 -7 0 -7 -7z" />
    <path d="M1731 814 l1 -19 5 13 c3 7 2 16 -1 19 -3 4 -6 -2 -5 -13z" />
    <path d="M1323 783 c4 -3 10 -3 14 0 3 4 0 7 -7 7 -7 0 -10 -3 -7 -7z" />
  </g>
  <g transform="translate(0.000000,301.000000) scale(0.100000,-0.100000)" fill="#834fc4" stroke="none">
    <path d="M2010 1410 c0 -7 3 -10 7 -7 3 4 3 10 0 14 -4 3 -7 0 -7 -7z" />
    <path d="M1693 1313 c4 -3 10 -3 14 0 3 4 0 7 -7 7 -7 0 -10 -3 -7 -7z" />
    <path d="M1915 1100 c3 -5 8 -10 11 -10 3 0 2 5 -1 10 -3 6 -8 10 -11 10 -3 0
-2 -4 1 -10z" />
    <path d="M1874 1078 l-7 -11 11 7 c12 7 16 16 8 16 -3 0 -8 -5 -12 -12z" />
    <path d="M1400 940 c0 -7 3 -10 7 -7 3 4 3 10 0 14 -4 3 -7 0 -7 -7z" />
    <path d="M1450 820 c0 -7 3 -10 7 -7 3 4 3 10 0 14 -4 3 -7 0 -7 -7z" />
  </g>
  <g transform="translate(0.000000,301.000000) scale(0.100000,-0.100000)" fill="#8450c4" stroke="none">
    <path d="M2145 2120 c3 -5 8 -10 11 -10 3 0 2 5 -1 10 -3 6 -8 10 -11 10 -3 0
-2 -4 1 -10z" />
    <path d="M2043 1443 c4 -3 10 -3 14 0 3 4 0 7 -7 7 -7 0 -10 -3 -7 -7z" />
    <path d="M1380 1260 l-15 -10 12 0 c6 0 15 5 18 10 8 12 4 12 -15 0z" />
    <path d="M1567 1259 c7 -7 15 -10 18 -7 3 3 -2 9 -12 12 l-18 7 12 -12z" />
    <path d="M1635 1080 c3 -5 8 -10 11 -10 3 0 2 5 -1 10 -3 6 -8 10 -11 10 -3 0
-2 -4 1 -10z" />
    <path d="M1780 1020 c0 -7 3 -10 7 -7 3 4 3 10 0 14 -4 3 -7 0 -7 -7z" />
    <path d="M1330 810 c0 -7 3 -10 7 -7 3 4 3 10 0 14 -4 3 -7 0 -7 -7z" />
    <path d="M1315 790 c3 -5 8 -10 11 -10 3 0 2 5 -1 10 -3 6 -8 10 -11 10 -3 0
-2 -4 1 -10z" />
  </g>
  <g transform="translate(0.000000,301.000000) scale(0.100000,-0.100000)" fill="#c7afe5" stroke="none">
    <path d="M1693 1343 c4 -3 10 -3 14 0 3 4 0 7 -7 7 -7 0 -10 -3 -7 -7z" />
    <path d="M1583 1253 c4 -3 10 -3 14 0 3 4 0 7 -7 7 -7 0 -10 -3 -7 -7z" />
  </g>
  <g transform="translate(0.000000,301.000000) scale(0.100000,-0.100000)" fill="#b190d9" stroke="none">
    <path d="M1438 1443 c7 -3 16 -2 19 1 4 3 -2 6 -13 5 l-19 -1 13 -5z" />
    <path d="M2113 1253 c9 -2 23 -2 30 0 6 3 -1 5 -18 5 l-30 0 18 -5z" />
    <path d="M1383 1163 c4 -3 10 -3 14 0 3 4 0 7 -7 7 -7 0 -10 -3 -7 -7z" />
    <path d="M1488 1103 c12 -2 30 -2 40 0 9 3 -1 5 -23 4 l-40 0 23 -4z" />
  </g>
  <g transform="translate(0.000000,301.000000) scale(0.100000,-0.100000)" fill="#9a70ce" stroke="none">
    <path d="M1495 2200 c3 -5 8 -10 11 -10 3 0 2 5 -1 10 -3 6 -8 10 -11 10 -3 0
-2 -4 1 -10z" />
  </g>
  <g transform="translate(0.000000,301.000000) scale(0.100000,-0.100000)" fill="#b89add" stroke="none" />
  <g transform="translate(0.000000,301.000000) scale(0.100000,-0.100000)" fill="#af8fd9" stroke="none">
    <path d="M1490 2280 c0 -7 3 -10 7 -7 3 4 3 10 0 14 -4 3 -7 0 -7 -7z" />
    <path d="M1330 820 c0 -7 3 -10 7 -7 3 4 3 10 0 14 -4 3 -7 0 -7 -7z" />
  </g>
</svg>